<?xml version="1.0" encoding="utf-8"?>
<!-- Generator: Adobe Illustrator 19.2.0, SVG Export Plug-In . SVG Version: 6.00 Build 0)  -->
<svg version="1.1" id="Capa_1" xmlns="http://www.w3.org/2000/svg" xmlns:xlink="http://www.w3.org/1999/xlink" x="0px" y="0px"
	 viewBox="0 0 22.7 28.3" style="enable-background:new 0 0 22.7 28.3;" xml:space="preserve">
<style type="text/css">
	.st0{fill:#FFFFFF;}
</style>
<g>
	<path class="st0" d="M6.4,3.7h9.4V1.5L6.4,3.7z M16.3,4.5H2.6c-0.2,0-0.4-0.2-0.4-0.4c0-0.2,0.1-0.4,0.3-0.5l13.6-3.1
		c0.1,0,0.3,0,0.4,0.1c0.1,0.1,0.2,0.2,0.2,0.3v3.1C16.7,4.3,16.5,4.5,16.3,4.5L16.3,4.5z"/>
	<path class="st0" d="M3.1,26.9h16.6V4.5H3.1V26.9z M20,27.8H2.6c-0.2,0-0.4-0.2-0.4-0.4V4.1c0-0.2,0.2-0.4,0.4-0.4H20
		c0.2,0,0.4,0.2,0.4,0.4v23.3C20.5,27.6,20.3,27.8,20,27.8L20,27.8z"/>
	<path class="st0" d="M2.8,27.2h4.8V4.3H2.8V27.2z M7.9,27.6H2.6c-0.1,0-0.2-0.1-0.2-0.2V4.1c0-0.1,0.1-0.2,0.2-0.2h5.3
		C8,3.9,8.1,4,8.1,4.1v23.3C8.1,27.5,8,27.6,7.9,27.6z"/>
</g>
</svg>
