<?xml version="1.0" encoding="utf-8"?>
<!-- Generator: Adobe Illustrator 19.2.0, SVG Export Plug-In . SVG Version: 6.00 Build 0)  -->
<svg version="1.1" id="Capa_1" xmlns="http://www.w3.org/2000/svg" xmlns:xlink="http://www.w3.org/1999/xlink" x="0px" y="0px"
	 viewBox="0 0 320.3 124.7" style="enable-background:new 0 0 320.3 124.7;" xml:space="preserve">
<style type="text/css">
	.st0{fill:#E9434B;}
	.st1{fill:#4E4E4E;}
</style>
<g>
	<g>
		<path class="st0" d="M129.4,12.5c0.1-0.3,0.2-0.5,0.2-0.6c0-0.1,0.1-0.2,0.1-0.3c0,0,0.1,0,0.3-0.1c0.2,0,0.4,0,0.7-0.1
			c1.4-0.1,2.5-0.2,3.4-0.2c0.9,0,1.5-0.1,1.9-0.1c0.4,0,1,0,1.7,0c0.7,0,1.4,0,2.3,0c0.8,0,1.6,0,2.2,0c0.7,0,1.2,0,1.6,0
			c0.6,0,0.9-0.4,1.1-1.1c0.2-1.1-0.3-1.7-1.7-1.7c-0.7,0-1.5,0-2.5,0.1c-1,0-2,0.1-3.1,0.1c-1.1,0.1-2.3,0.1-3.5,0.2
			c-1.2,0.1-2.5,0.2-3.8,0.3c0-0.4,0-0.7-0.1-0.9C130.2,8.1,130,8,129.7,8c-0.4,0-0.9,0.4-1.2,1.1c-0.1,0.1-0.3,0.2-0.4,0.3
			c-0.2,0.1-0.4,0.1-0.7,0.1c-1.6,0.2-3.1,0.3-4.4,0.5c-1.3,0.1-2.4,0.3-3.2,0.4c-1.1,0.1-1.9,0.2-2.7,0.3c-0.7,0.1-1.3,0.2-1.6,0.3
			c-1.4,0.4-2.1,1-2.3,1.6c0,0.4,0.1,0.7,0.3,1c0.2,0.3,0.7,0.5,1.3,0.7c0.9,0.3,1.7,0.4,2.4,0.4c1.2,0,1.8-0.3,1.9-0.8
			c0.1-0.4-0.1-0.6-0.6-0.8c0.4,0,0.9-0.1,1.4-0.2c0.5-0.1,1.1-0.2,1.8-0.3c1.5-0.2,2.8-0.4,3.6-0.5c0.9-0.1,1.4-0.1,1.6-0.1
			c0.2,0,0.3,0.2,0.2,0.5c0,0.1,0,0.3-0.1,0.5c0,0,0,0.1-0.1,0.1c0,0-0.1,0.1-0.1,0.1c-0.5,1.7-1.1,3.5-1.6,5.4
			c-0.6,1.9-1.2,4-1.8,6.2c-0.7,2.3-0.5,1.5-0.9,3.2c-0.4,1.7-0.7,3-0.9,4.1c-0.4,2.2,0,3.3,1,3.3c0.4,0,1-0.5,1.7-1.4l-0.1,0.1
			c0.7-0.9,1.1-1.5,1.1-1.8c0.1-0.5-0.1-0.8-0.5-0.8c-0.2,0-0.4,0.1-0.7,0.2l0.1,0l-0.3,0.1c0,0-0.1,0-0.1-0.1
			c0.1-0.5,0.4-1.6,0.8-3.4c0.4-1.8,0.4-1.5,1.2-4.6C126.4,22.8,129.1,13.3,129.4,12.5z"/>
		<path class="st0" d="M186.9,21.4c0.8,0,1.2-0.6,1.4-1.9c0.2-1.3,0-1.9-0.7-1.9c-0.8,0-1.3,0.7-1.5,2
			C185.9,20.8,186.1,21.4,186.9,21.4z"/>
		<path class="st0" d="M200.6,31.5c0.5-0.2,1.1-0.5,1.7-0.9c1.2-0.9,2-1.8,2.1-2.6c0.1-0.8-0.2-1.2-0.9-1.2c0,0-0.1,0-0.1,0
			c-0.1,0-0.1,0.1-0.1,0.1c-0.2,0.1-0.3,0.3-0.5,0.5c-0.1,0.2-0.3,0.3-0.4,0.4c-0.1,0.1-0.2,0.2-0.4,0.4c-0.1,0.1-0.3,0.3-0.4,0.4
			c-0.6,0.6-1.3,0.9-2.1,0.9c-0.4,0-0.6-0.5-0.4-1.4c0-0.1,0.1-0.3,0.1-0.5c0.1-0.2,0.2-0.5,0.3-0.7c0.1-0.2,0.2-0.4,0.3-0.6
			c0.1-0.2,0.1-0.4,0.2-0.8c0.1-0.8-0.3-1.2-1.3-1.2c-0.1,0-0.3,0.1-0.5,0.2c0-0.3-0.1-0.6-0.2-0.8c-0.1-0.3-0.3-0.5-0.6-0.7
			c-0.2-0.2-0.5-0.4-0.8-0.5c-0.3-0.1-0.6-0.2-1-0.2c-1.1,0-2.5,1-4,3.1l0.1,0l-1.4,1.4c-0.8,0.8-1.3,1.3-1.3,1.6
			c-0.7,0.8-1.3,1.2-1.9,1.2c-0.7,0-1-0.5-0.8-1.5c0-0.2,0.1-0.4,0.2-0.8c0.1-0.3,0.2-0.7,0.4-1.2c0.2-0.5,0.3-0.9,0.4-1.3
			c0.1-0.4,0.2-0.7,0.2-0.9c0.1-0.8-0.3-1.2-1.2-1.2c-0.3,0-0.6,0.2-0.8,0.6c-0.4,0.6-0.7,1.1-0.8,1.4c-0.2,0.3-0.3,0.5-0.3,0.5
			c-0.2,0.3-0.4,0.5-0.7,0.8c-0.1,0.1-0.2,0.2-0.3,0.3c-0.1,0-0.3,0.1-0.7,0.4c-0.4,0.3-0.9,0.7-1.6,1.3c-1.1,1-1.9,1.5-2.5,1.5
			c-0.2,0-0.2-0.2-0.2-0.7c0-0.2,0.1-0.4,0.2-0.7c0.1-0.2,0.2-0.5,0.5-0.8c0.4-0.8,0.7-1.3,0.8-1.6c0.1-0.8-0.3-1.5-1.1-2.1
			c-0.7-0.4-0.9-0.9-0.8-1.4c0.2-1.1-0.2-1.7-1-1.7c-1,0-1.6,0.4-1.8,1.3c0,0.1,0,0.3,0,0.4c0,0.2,0,0.3,0.1,0.5
			c0,0.1,0,0.2,0.1,0.4c0,0.1,0,0.2,0,0.3c0,0.4-0.6,1.1-1.8,2.2c0,0-0.1,0.1-0.1,0.1c0-0.3-0.1-0.7-0.3-1.1
			c-0.4-0.9-1.1-1.7-1.2-1.6c-0.6-0.4-1.1-0.6-1.6-0.6c-0.1,0-0.2,0-0.2,0c0,0-0.1,0-0.2,0.1c0.1-0.7-0.2-1.1-1.1-1.1
			c-1.6,0-3,1.6-4.2,4.7c0,0.2-0.1,0.4-0.3,0.6c-0.1,0.2-0.7,0-1.1,0.5c-0.4,0.5-0.9,2.1-1.1,2.1c-1.3,0-1.7-1.2-1.3-3.5
			c0.1-0.9,0.5-2,0.9-3.4c0.5-1.4,1.1-3.1,1.8-4.9c0.2,0,0.6,0,0.6,0c0.3,0,0.7,0,1.1,0c0.6,0,1.1,0,1.4,0c1.1,0,2,0,2.7,0h2
			c1.6,0,2.5-0.4,2.6-1.3c0.2-0.9-0.2-1.3-1.2-1.3c-0.2,0-0.3,0.1-0.4,0.3c-0.1,0.2,0,0.3,0.1,0.5c-0.4-0.1-1.3-0.2-2.7-0.3
			c-1.4-0.1-3.2-0.1-5.6-0.1c0,0-0.1,0-0.1,0c0.1-0.5,0.2-0.9,0.3-1.2c0.1-0.3,0.1-0.6,0.2-0.8c0.2-1-0.2-1.5-1.1-1.5
			c-0.3,0-0.7,0.3-1,0.9c-0.1,0.2-0.5,1.3-1,2.6c-0.7,0-1.4,0-2.3,0.1c0.1-0.5,0.2-0.9,0.3-1.2c0.1-0.3,0.1-0.6,0.2-0.8
			c0.2-1-0.2-1.5-1.1-1.5c-0.3,0-0.7,0.3-1,0.9c-0.3,0.6-0.7,1.5-0.9,2.8c-0.8,0-1.6,0.1-2.3,0.1c-0.7,0-1.5,0.1-2.3,0.1
			c-2.6,0.2-4.1,0.5-4.7,0.8c-0.5,0.4-0.8,0.8-0.9,1.1c-0.2,1.2,0.4,1.8,2,1.8c0.3,0,0.6-0.1,0.7-0.2c0.2-0.1,0.3-0.3,0.3-0.5
			c0,0,0-0.1,0-0.2c0-0.1,0-0.1-0.1-0.1l-0.2-0.4c0,0,0.1,0,0.3,0c0.1,0,0.3,0,0.5,0c1.2-0.1,2.3-0.1,3.2-0.2c1,0,1.9-0.1,2.7-0.1
			c-0.6,1.4-1.1,2.8-1.5,4.1c-0.4,1.3-0.7,2.5-0.9,3.6c-0.1,0.4-0.1,0.8-0.1,1.2c-0.1,0.1-0.3,0.2-0.4,0.4c-0.1,0.2-0.3,0.3-0.4,0.4
			c-0.1,0.1-0.2,0.2-0.4,0.4c-0.1,0.1-0.3,0.3-0.4,0.4c-0.6,0.6-1.3,0.9-2.1,0.9c-0.4,0-0.6-0.5-0.4-1.4c0-0.1,0.1-0.3,0.1-0.5
			c0.1-0.2,0.2-0.5,0.3-0.7c0.1-0.2,0.2-0.4,0.3-0.6c0.1-0.2,0.1-0.4,0.2-0.8c0.1-0.8-0.3-1.2-1.3-1.2c-0.1,0-0.3,0.1-0.5,0.2
			c0-0.3-0.1-0.6-0.2-0.8c-0.1-0.3-0.3-0.5-0.6-0.7c-0.2-0.2-0.5-0.4-0.8-0.5c-0.3-0.1-0.6-0.2-1-0.2c-1.1,0-2.5,1-4,3.1l0.1,0
			l-0.9,0.9c-0.1,0.1-0.3,0.2-0.4,0.3c-0.4,0.3-0.9,0.7-1.6,1.3c-1.1,1-1.9,1.5-2.5,1.5c-0.2,0-0.2-0.2-0.2-0.7
			c0-0.2,0.1-0.4,0.2-0.7c0.1-0.2,0.2-0.5,0.5-0.8c0.4-0.8,0.7-1.3,0.8-1.6c0.1-0.8-0.3-1.5-1.1-2.1c-0.7-0.4-0.9-0.9-0.8-1.4
			c0.2-1.1-0.2-1.7-1-1.7c-1,0-1.6,0.4-1.8,1.3c0,0.1,0,0.3,0,0.4c0,0.2,0,0.3,0.1,0.5c0,0.1,0,0.2,0.1,0.4c0,0.1,0,0.2,0,0.3
			c0,0.4-1.1,1.7-2.3,2.9c-1.2,1.3-1.9,2.1-1.9,2.4c-0.1,0.7,0.2,1.1,0.9,1.1c0.7,0,1.5-0.7,2.6-2.1c0.7-0.9,1.7-2.2,1.9-2.8
			c0,0.1,0.1,0.1,0.1,0.2c0,0.1,0.1,0.1,0.1,0.2c0.4,0.3,0.5,0.6,0.5,0.8c0,0.1-0.1,0.3-0.2,0.6c-0.1,0.2-0.2,0.6-0.4,1
			c-0.3,0.7-0.5,1.3-0.6,1.8c-0.3,1.8,0.3,2.7,1.9,2.7c0.4,0,0.9-0.1,1.5-0.4c0.6-0.3,1.3-0.7,2-1.3c0.4-0.3,0.7-0.5,1-0.8
			c0,0,0,0,0,0c0.2-0.1,0.3-0.1,0.4-0.2c0,0.4,0.1,0.7,0.2,1c0.1,0.3,0.1,0.5,0.2,0.7c0.4,0.7,1.1,1.1,2.2,1.1
			c0.5,0,0.9-0.1,1.4-0.4c0.5-0.3,0.9-0.7,1.3-1.2c0.2-0.3,0.4-0.5,0.6-0.8c0.2-0.3,0.4-0.5,0.7-0.8v0.5V30c0.2,1,0.9,1.5,2,1.5
			c0.4,0,0.9-0.1,1.4-0.3c0.5-0.2,1.1-0.5,1.7-0.9c0.4-0.3,0.8-0.6,1.1-1c0,0,0,0.1,0,0.1c0.3,0.7,0.7,1.3,1.1,1.7
			c0.5,0.4,1.1,0.6,1.8,0.6c0.6,0,1.5-0.3,2.6-0.9c0.1,0.1,0.2,0.2,0.4,0.3c0.5,0.4,1.1,0.6,1.8,0.6c0.6,0,2-0.5,2.8-2.7
			c0,0.3,0.2,0.7,0.3,1c0.2,0.4,0.4,0.7,0.7,0.9c0.4,0.4,0.8,0.8,1.3,1c0.5,0.2,1,0.4,1.5,0.4c1.2,0,2.3-0.6,3.3-1.8
			c0.4-0.5,0.7-1,1-1.6c0.6-0.1,1.5-0.8,2.5-2.1c0.7-0.9,1.2-1.6,1.4-2.2c0,0.1,0.1,0.1,0.1,0.2c0,0.1,0.1,0.1,0.1,0.2
			c0.4,0.3,0.5,0.6,0.5,0.8c0,0.1-0.1,0.3-0.2,0.6c-0.1,0.2-0.2,0.6-0.4,1c-0.3,0.7-0.5,1.3-0.6,1.8c-0.3,1.8,0.3,2.7,1.9,2.7
			c0.4,0,0.9-0.1,1.5-0.4c0.6-0.3,1.3-0.7,2-1.3c0.2-0.2,0.4-0.3,0.6-0.5c0.4-0.1,0.8-0.5,1.4-1.1c0.1-0.1,0.2-0.2,0.3-0.3
			c0.1-0.1,0.2-0.2,0.2-0.2c-0.3,2.5,0.5,3.8,2.4,3.8c0.7,0,1.8-0.6,3.1-1.7c0.4-0.3,0.8-0.7,1-1c0,0.3,0.1,0.6,0.2,0.8
			c0.1,0.3,0.1,0.5,0.2,0.7c0.4,0.7,1.1,1.1,2.2,1.1c0.5,0,0.9-0.1,1.4-0.4c0.5-0.3,0.9-0.7,1.3-1.2c0.2-0.3,0.4-0.5,0.6-0.8
			c0.2-0.3,0.4-0.5,0.7-0.8V29v1.2c0.2,1,0.9,1.5,2,1.5C199.6,31.8,200.1,31.7,200.6,31.5z M147.2,25.7c-0.2,0.3-0.5,0.7-0.8,1.1
			c-1.2,1.6-2.1,2.5-2.9,2.5c-0.4,0-0.6-0.6-0.4-1.8c0.1-0.4,0.2-0.7,0.3-1.1c0.1-0.4,0.3-0.7,0.6-1c0.4-0.7,0.9-1,1.5-1.1
			c-0.1,0,0,0.1,0.3,0.1c0.3,0.1,0.5,0.1,0.8,0.2l0,0c0.2,0.1,0.4,0.1,0.6,0.2c0.2,0.1,0.4,0.1,0.6,0.1
			C147.7,25.1,147.5,25.4,147.2,25.7z M157.2,29.2c-1.3,0-1.7-1.2-1.3-3.5c0.1-0.9,0.5-2,0.9-3.4c0.5-1.4,1.1-3,1.7-4.9
			c0.5,0,1.1,0,1.7,0c0.2,0,0.3,0,0.5,0c-0.6,1.9-1.3,3.8-1.4,4.4c-0.4,1.3-0.7,2.5-0.9,3.6c-0.1,0.8-0.2,1.5-0.1,2.2
			c0,0.4,0.1,0.8,0.1,1.1c-0.2,0.1-0.4,0.3-0.6,0.3C157.7,29.2,157.4,29.2,157.2,29.2z M170.8,27.3c0,0.3-0.1,0.7-0.3,1
			c-0.1,0.3-0.3,0.6-0.6,0.9c-0.2,0.2-0.5,0.4-0.8,0.6c-0.3,0.2-0.6,0.3-0.8,0.3c-0.3,0-0.6-0.1-0.8-0.4c-0.2-0.2-0.4-0.6-0.6-0.9
			c-0.1-0.4-0.2-0.8-0.2-1.3c0-0.4,0-0.9,0.1-1.3c0-0.4,0.1-0.7,0.3-1c0.2-0.3,0.3-0.6,0.5-0.8c0.2-0.2,0.4-0.4,0.5-0.5
			c0.2-0.2,0.4-0.3,0.7-0.4c0.1,0,0.2-0.1,0.2-0.1c0,0.1-0.1,0.1-0.1,0.2c0,0.1,0,0.2,0,0.2c-0.1,0.5,0,1,0.3,1.3
			c0.3,0.3,0.7,0.5,1.2,0.5c0.2,0,0.3,0,0.4-0.1C171,25.7,171,26.3,170.8,27.3z M196.8,25.9c-0.2,0.3-0.5,0.7-0.8,1.1
			c-1.2,1.6-2.1,2.5-2.9,2.5c-0.4,0-0.6-0.6-0.4-1.8c0.1-0.4,0.2-0.7,0.3-1.1c0.1-0.4,0.3-0.7,0.6-1c0.4-0.7,0.9-1,1.5-1.1
			c-0.1,0,0,0.1,0.3,0.1c0.3,0.1,0.5,0.1,0.8,0.2l0,0c0.2,0.1,0.4,0.1,0.6,0.2c0.2,0.1,0.4,0.1,0.6,0.1
			C197.2,25.3,197,25.6,196.8,25.9z"/>
		<g>
			<path class="st0" d="M66,57.7c0.1,0,0.1,0,0.2,0c0.7,0,1.4,0,2.1,0.1c0.9-1,1.9-1.9,3.2-2.7c-0.3-0.1-0.5-0.1-0.7-0.2
				c-1.9-0.6-3.6-0.8-5.3-0.8c-1.1,0-2.3,0.1-3.3,0.4c-6.5,1.5-11.6,7.2-12.3,13.7c-0.4,3.5,0.2,7,1.8,9.9c1.6,3,4,5.3,7.1,6.8
				c2.7,1.3,5.9,1.7,8.2,1.6c0.9,0,4.1-0.8,4.1-0.8c-1.2-0.8-2.2-1.8-2.9-2.9c-0.6,0.1-1.2,0.1-1.8,0.1c-3.6,0-6.9-1.2-8.8-3.2
				c-2.2-2.3-3.6-5.2-3.8-8.4c-0.2-3.2,0.7-6.3,2.6-8.7C58.9,59.4,62.1,57.7,66,57.7z"/>
			<path class="st0" d="M88.3,57.7c0.1,0,0.1,0,0.2,0c4,0,6.9,1.1,9.1,3.5l-0.9-5.5c-0.4-0.1-0.8-0.1-1.1-0.2
				c-0.9-0.2-1.7-0.3-2.6-0.6c-1.9-0.6-3.6-0.8-5.3-0.8c-1.1,0-2.3,0.1-3.3,0.4c-6.5,1.5-11.6,7.2-12.3,13.7c-0.4,3.5,0.2,7,1.8,9.9
				c1.6,3,4,5.4,7.1,6.8c2.9,1.4,5.3,1.7,8.4,1.7c3.1,0,7.3-1.7,7.3-1.7l0.1-0.5c0.1-0.7,0.3-1.5,0.4-2.3c0.1-0.8,0.3-1.6,0.4-2.4
				l0-0.1c-2.1,2.1-5.3,3.4-9,3.4c-3.6,0-6.9-1.2-8.8-3.2c-2.2-2.3-3.6-5.2-3.8-8.4c-0.2-3.2,0.7-6.3,2.6-8.7
				C81.2,59.4,84.4,57.7,88.3,57.7z"/>
			<path class="st0" d="M153.4,54.2c0,0-0.1,0-0.1,0c-4.3,0-8.3,1.8-11.3,4.8c-3,3.1-4.7,7.1-4.6,11.3c0,4.3,1.7,8.3,4.7,11.4
				c3,3,7,4.7,11.3,4.7h0c4.2,0,8.2-1.7,11.3-4.7c3-3.1,4.7-7.1,4.7-11.4c0-4.2-1.7-8.3-4.7-11.3C161.6,55.9,157.6,54.2,153.4,54.2z
				 M161.8,79.1c-2.3,2.3-5.3,3.6-8.5,3.6l-0.1,0c-3.2,0-6.2-1.3-8.5-3.7c-2.2-2.4-3.5-5.5-3.4-8.9c0-3.3,1.3-6.4,3.5-8.7
				c2.3-2.3,5.3-3.6,8.5-3.6l0,0c3.2,0,6.2,1.3,8.4,3.7c2.3,2.4,3.5,5.5,3.5,8.7C165.3,73.6,164.1,76.7,161.8,79.1z"/>
			<path class="st0" d="M120.9,60.3c0-1.9,0-3.8,0-5.8H117v17.1c0,0.2-0.1,0.3-0.3,0.3h-8.9c-0.2,0-0.3-0.1-0.3-0.3V54.6h-4.1
				c0,0.2,0,0.5,0.1,0.7c0.1,0.8,0.1,1.5,0.1,2.2c0,9,0,17.3,0,25.4c0,0.8-0.1,1.6-0.2,2.4c0,0.2,0,0.5-0.1,0.7h4.2v-9.9
				c0-0.2,0.1-0.3,0.3-0.3h8.9c0.2,0,0.3,0.1,0.3,0.3V86l1.8,0c0.7,0,1.4,0,2.1,0c0,0,0.1,0,0.1,0C120.8,77.4,120.8,68.7,120.9,60.3
				z"/>
			<path class="st0" d="M39.3,82.5c-0.6,0-1.3,0-1.9,0c-0.5,0-1,0-1.5,0c0,0,0,0,0,0c-0.1,0-0.2,0-0.2-0.1c-0.1-0.1-0.1-0.1-0.1-0.2
				v-5.9c0-0.2,0.1-0.3,0.3-0.3h6.8V72H36c-0.2,0-0.3-0.1-0.3-0.3V58.6c0-0.2,0.1-0.3,0.3-0.3h8.6L44,54.4H31.6
				c0,0.3,0.1,0.6,0.1,0.8c0.1,0.8,0.2,1.5,0.2,2.2c0,8.6,0,17,0,25.2c0,0.8-0.1,1.6-0.2,2.5c0,0.3-0.1,0.6-0.1,0.9h13l0.7-4
				c-1.5,0.3-3,0.4-4.1,0.4C40.6,82.5,40,82.5,39.3,82.5z"/>
			<path class="st0" d="M18.3,70.6c-0.7,2.8-1.4,5.8-2.1,8.7c0,0.1-0.1,0.2-0.2,0.2c0,0-0.1,0-0.1,0c-0.1,0-0.2,0-0.2-0.1
				c-0.2-0.2-0.3-0.5-0.4-0.8c-0.3-1.2-0.6-2.5-0.9-3.7c-0.8-3.1-1.6-6.3-2.3-9.4c-0.3-1.1-0.6-2.2-0.8-3.3c-0.7-2.5-1.4-5-1.5-7.6
				H5.2c0.1,0.3,0.2,0.5,0.3,0.8c0.3,0.9,0.7,1.7,0.9,2.6c2.1,7.8,4.1,15.8,6.3,24.4c0.2,0.8,0.3,1.7,0.5,2.6c0,0.3,0.1,0.7,0.1,1
				H18c0-0.2,0-0.4,0-0.6c0-0.7,0.1-1.3,0.2-2c1-3.6,1.9-7.2,2.8-10.7c1.5-6,3-12.1,4.9-18.1h-4.1C20.9,60.1,19.6,65.4,18.3,70.6z"
				/>
			<path class="st0" d="M127.8,54.6c0,1.5,0,3.1,0,4.6c0,3.6,0,7.4,0,11.1c0,3.7,0,7.5,0,11.1c0,1.5,0,3,0,4.6h3.9
				c-0.2-10.5-0.2-21,0-31.4H127.8z"/>
			<path class="st0" d="M215.1,54.3c-4.2,0-8.2,1.7-11.3,4.7c-3,3-4.7,7-4.7,11.3c0,4.3,1.6,8.4,4.6,11.4c3,3,7,4.7,11.3,4.7l0.1,0
				c4.2,0,8.1-1.7,11.1-4.8c3-3.1,4.7-7.1,4.7-11.3c0-4.2-1.7-8.3-4.7-11.3C223.3,55.9,219.3,54.3,215.1,54.3z M216.9,82.5
				c-0.4,0.1-0.8,0.1-1.3,0.1c-0.2,0-0.4,0-0.6,0c0,0,0,0,0,0h0c-4.2,0-8-2.3-10.2-6c-2.3-3.9-2.3-8.6-0.1-12.5
				c2.2-3.9,6.1-6.3,10.4-6.3c0.8,0,1.5,0.1,2.3,0.2c5,1,9,5.5,9.5,10.7C227.6,75.6,223.4,81.4,216.9,82.5z"/>
			<path class="st0" d="M310.4,59c-3-3-7-4.7-11.2-4.7h0c-8.8,0-15.9,7.1-15.9,15.9c0,4.3,1.6,8.4,4.6,11.4c3,3,7,4.7,11.3,4.8
				l0.1,0c4.1,0,8.1-1.7,11.1-4.7c3-3.1,4.7-7.1,4.7-11.3C315.1,66.1,313.4,62,310.4,59z M309,77.3c-1.6,2.5-4,4.2-6.9,5
				c-0.7,0.2-1.3,0.3-2,0.3c-0.3,0-0.6,0.1-0.9,0.1c0,0,0,0,0,0c0,0,0,0,0,0c-4.3-0.1-8.1-2.4-10.3-6.1c-2.2-3.9-2.3-8.6,0-12.6
				c1.1-1.9,2.6-3.5,4.4-4.5c1.8-1.1,3.8-1.6,5.9-1.6c0.8,0,1.5,0.1,2.3,0.2c5,1,9,5.5,9.5,10.6C311.3,71.9,310.6,74.9,309,77.3z"/>
			<path class="st0" d="M278.1,82.7c0-7.7,0-15.5,0-23.2c0-1.2,0.1-2.4,0.1-3.5c0-0.4,0-0.9,0.1-1.3h-4.1c0.4,3.4,0.3,6.8,0.2,10.2
				c0,1.9-0.1,3.9,0,5.8c0,0.1-0.1,0.2-0.2,0.3c0,0-0.1,0-0.2,0c-0.1,0-0.1,0-0.2-0.1c-0.3-0.2-0.6-0.5-0.7-0.7
				c-0.7-1-1.4-1.9-2.1-2.9c-1.7-2.2-3.4-4.6-5.2-6.8c-1.2-1.5-1.5-3-1.1-5.2c0-0.2,0.1-0.5,0.2-0.7h-4.3c0,0.3,0.1,0.5,0.1,0.7
				c0.1,0.8,0.2,1.5,0.2,2.3c0,7.8,0,15.6,0,23.1c0,1.3-0.1,2.5-0.1,3.8c0,0.5,0,0.9-0.1,1.4h4.1c-0.3-4-0.3-8-0.2-11.8
				c0-2.6,0.1-5.4,0-8.1c0-0.2,0.1-0.3,0.3-0.3l0.3,0c0,0,0,0,0.1,0c0.1,0,0.2,0,0.3,0.1l1.5,2c2.4,3.2,4.8,6.4,7.2,9.6
				c0.1,0.1,0.4,0.5,0.3,0.9c0,0.8,0,1.7,0,2.5c0,1.7,0.1,3.4-0.3,5.1h4.3c0-0.3-0.1-0.6-0.1-0.8C278.2,84.3,278.2,83.5,278.1,82.7z
				"/>
			<path class="st0" d="M253.6,83c0-0.2,0-0.5,0-0.7c-0.4,0.1-0.9,0.2-1.3,0.2c-3,0-6.2-2.6-6.2-6.5c0-0.1,0-0.1,0.1-0.2l0,0
				c0,0,0.1-0.1,0.2-0.2c0.1-0.1,0.3-0.1,0.4-0.2c0.2-0.1,0.4-0.2,0.7-0.4c4-2.4,5.9-5.8,5.8-10.1c-0.1-4.4-2.3-7.6-6.6-9.6
				c-2-0.9-4.2-1.1-6.2-1.1c-0.5,0-1,0-1.5,0c-0.5,0-1,0-1.5,0c-0.2,0-0.5,0-0.7,0c0,0.3,0.1,0.6,0.1,0.8c0.1,0.8,0.2,1.7,0.2,2.5
				c0,8.1,0,16.2,0,24.2c0,1-0.1,2.1-0.2,3.1c0,0.3-0.1,0.7-0.1,1.1h4.1c-0.3-5.5-0.2-11-0.2-16.3c0-3.7,0.1-7.5,0-11.2
				c0-0.1,0-0.2,0.1-0.2c0.1-0.1,0.1-0.1,0.2-0.1c0.2,0,0.4,0,0.6,0c0.2,0,0.4,0,0.5,0c0.2,0,0.4,0,0.6,0c3.6,0.1,6.7,3.3,6.8,7
				c0.1,3.8-2.6,7.1-6.3,7.4c-0.5,0-0.5,0.2-0.6,0.5c0,0.3,0,0.6-0.1,0.9c-0.1,0.7-0.1,1.5-0.1,2.2c0.1,4.6,2.8,8.5,6.9,9.9
				c1,0.3,2.1,0.3,3.1,0.3c0.1,0,0.3,0,0.4,0l0,0c0.2,0,0.4,0,0.6-0.2c0.1-0.1,0.1-0.2,0.1-0.4C253.6,84.8,253.6,83.9,253.6,83z"/>
			<path class="st0" d="M185.7,58.2c0.1-0.1,0.1-0.1,0.2-0.1c0,0,0,0,0,0c0.5,0,1,0.1,1.6,0.1c0.5,0,1.1,0,1.6,0c0.5,0,1.1,0,1.6,0
				c1.1,0,2.5,0,3.9,0.4l-0.7-4h-12.3c0,0.4,0.1,0.8,0.1,1.2c0.1,1.1,0.2,2.1,0.2,3.1c0,7.9,0,15.9,0,23.8c0,0.9-0.1,1.7-0.2,2.5
				c0,0.3-0.1,0.5-0.1,0.8h4.3c-0.4-2.1-0.4-4.1-0.3-6.2c0-1.2,0.1-2.4,0-3.5c0-0.1,0-0.2,0.1-0.2c0.1-0.1,0.1-0.1,0.2-0.1h6.8v-4
				h-6.8c-0.2,0-0.3-0.1-0.3-0.3V58.5C185.6,58.4,185.6,58.3,185.7,58.2z"/>
		</g>
	</g>
	<g>
		<path class="st1" d="M71.1,115.2c-0.2,0.3-0.4,0.6-0.7,0.9c-0.3,0.3-0.6,0.5-0.9,0.7c-0.3,0.2-0.7,0.3-1,0.4
			c-0.4,0.1-0.8,0.2-1.2,0.2c-0.6,0-1.2-0.1-1.7-0.4c-0.5-0.2-1-0.6-1.4-1c-0.4-0.4-0.7-0.9-1-1.4c-0.2-0.5-0.4-1.1-0.4-1.7
			c0-0.6,0.1-1.2,0.4-1.7c0.2-0.5,0.6-1,1-1.4c0.4-0.4,0.9-0.7,1.4-1c0.5-0.2,1.1-0.4,1.7-0.4c0.4,0,0.8,0.1,1.2,0.2
			c0.4,0.1,0.7,0.2,1,0.4c0.3,0.2,0.6,0.4,0.9,0.7c0.3,0.3,0.5,0.6,0.7,0.9l-1.4,1.4c-0.1-0.2-0.2-0.5-0.4-0.7
			c-0.2-0.2-0.3-0.4-0.6-0.5c-0.2-0.1-0.4-0.3-0.7-0.3c-0.3-0.1-0.5-0.1-0.8-0.1c-0.4,0-0.7,0.1-1,0.2c-0.3,0.1-0.6,0.3-0.8,0.6
			c-0.2,0.2-0.4,0.5-0.6,0.8c-0.1,0.3-0.2,0.7-0.2,1c0,0.4,0.1,0.7,0.2,1c0.1,0.3,0.3,0.6,0.6,0.8c0.2,0.2,0.5,0.4,0.8,0.6
			c0.3,0.1,0.7,0.2,1,0.2c0.3,0,0.5,0,0.8-0.1c0.3-0.1,0.5-0.2,0.7-0.3c0.2-0.1,0.4-0.3,0.6-0.5c0.2-0.2,0.3-0.4,0.4-0.7L71.1,115.2
			z"/>
		<path class="st1" d="M81.9,108.4v4.9c0,0.2,0,0.5-0.1,0.8c0,0.3-0.1,0.6-0.2,0.9c-0.1,0.3-0.3,0.6-0.4,0.9
			c-0.2,0.3-0.4,0.5-0.7,0.8c-0.3,0.2-0.6,0.4-0.9,0.5c-0.4,0.1-0.8,0.2-1.2,0.2h0c-0.5,0-0.9-0.1-1.4-0.2c-0.4-0.2-0.8-0.4-1.1-0.7
			c-0.3-0.3-0.5-0.6-0.7-0.9c-0.2-0.3-0.3-0.7-0.3-1c-0.1-0.3-0.1-0.6-0.1-0.8c0-0.2,0-0.4,0-0.4v-4.9h1.9v4.9c0,0.1,0,0.2,0,0.3
			c0,0.1,0,0.3,0.1,0.4c0,0.2,0.1,0.3,0.2,0.5c0.1,0.2,0.2,0.3,0.3,0.5c0.1,0.1,0.3,0.3,0.5,0.4c0.2,0.1,0.4,0.1,0.7,0.1
			c0.4,0,0.7-0.1,1-0.3c0.2-0.2,0.4-0.4,0.5-0.7c0.1-0.3,0.2-0.5,0.2-0.7c0-0.2,0-0.4,0-0.5v-4.9H81.9z"/>
		<path class="st1" d="M94.3,115.2c-0.2,0.3-0.4,0.6-0.7,0.9c-0.3,0.3-0.6,0.5-0.9,0.7c-0.3,0.2-0.7,0.3-1,0.4
			c-0.4,0.1-0.8,0.2-1.2,0.2c-0.6,0-1.2-0.1-1.7-0.4c-0.5-0.2-1-0.6-1.4-1c-0.4-0.4-0.7-0.9-1-1.4c-0.2-0.5-0.4-1.1-0.4-1.7
			c0-0.6,0.1-1.2,0.4-1.7c0.2-0.5,0.6-1,1-1.4c0.4-0.4,0.9-0.7,1.4-1c0.5-0.2,1.1-0.4,1.7-0.4c0.4,0,0.8,0.1,1.2,0.2
			c0.4,0.1,0.7,0.2,1,0.4c0.3,0.2,0.6,0.4,0.9,0.7c0.3,0.3,0.5,0.6,0.7,0.9l-1.4,1.4c-0.1-0.2-0.2-0.5-0.4-0.7
			c-0.2-0.2-0.3-0.4-0.6-0.5c-0.2-0.1-0.4-0.3-0.7-0.3c-0.3-0.1-0.5-0.1-0.8-0.1c-0.4,0-0.7,0.1-1,0.2c-0.3,0.1-0.6,0.3-0.8,0.6
			c-0.2,0.2-0.4,0.5-0.6,0.8c-0.1,0.3-0.2,0.7-0.2,1c0,0.4,0.1,0.7,0.2,1c0.1,0.3,0.3,0.6,0.6,0.8c0.2,0.2,0.5,0.4,0.8,0.6
			c0.3,0.1,0.7,0.2,1,0.2c0.3,0,0.5,0,0.8-0.1c0.3-0.1,0.5-0.2,0.7-0.3c0.2-0.1,0.4-0.3,0.6-0.5c0.2-0.2,0.3-0.4,0.4-0.7L94.3,115.2
			z"/>
		<path class="st1" d="M100.3,108.4v8.9h-1.9v-8.9H100.3z"/>
		<path class="st1" d="M111.2,108.4h1.9v8.9H111l-3.8-5.8v5.8h-1.9v-8.9h2.1l3.8,5.8V108.4z"/>
		<path class="st1" d="M123.9,117.3l-0.5-1.3h-3.6l-0.5,1.3h-2l3.2-8.9h2.2l3.2,8.9H123.9z M120.5,114.2h2.3l-1.1-3.2L120.5,114.2z"
			/>
		<path class="st1" d="M145.3,117.3l-0.5-1.3h-3.6l-0.5,1.3h-2l3.2-8.9h2.2l3.2,8.9H145.3z M141.9,114.2h2.3l-1.1-3.2L141.9,114.2z"
			/>
		<path class="st1" d="M158.4,114.1c0.2,0.2,0.4,0.4,0.6,0.7c0.2,0.3,0.3,0.5,0.4,0.8c0.1,0.3,0.2,0.6,0.2,0.8
			c0,0.3,0.1,0.6,0.1,0.8h-0.9h-0.9c0-0.1,0-0.2,0-0.3c0-0.1,0-0.3-0.1-0.4c0-0.2-0.1-0.3-0.2-0.5c-0.1-0.2-0.2-0.3-0.3-0.5
			c-0.1-0.1-0.3-0.3-0.5-0.4c-0.2-0.1-0.5-0.1-0.8-0.1h-2.2v2.2H152v-8.9h4c0,0,0.1,0,0.3,0c0.1,0,0.3,0,0.5,0.1
			c0.2,0.1,0.4,0.2,0.7,0.3c0.2,0.1,0.5,0.3,0.7,0.5c0.7,0.7,1,1.6,1,2.8c0,0.5-0.1,0.9-0.2,1.2
			C158.9,113.6,158.7,113.9,158.4,114.1z M156,113.3c0.1,0,0.2,0,0.4,0c0.2,0,0.3-0.1,0.5-0.2c0.1-0.1,0.3-0.2,0.4-0.4
			c0.1-0.2,0.2-0.4,0.2-0.6c0-0.4-0.1-0.8-0.2-1c-0.1-0.2-0.2-0.4-0.4-0.6c-0.2-0.1-0.3-0.2-0.5-0.2c-0.2,0-0.3-0.1-0.4-0.1h-2.2
			v3.1H156z"/>
		<path class="st1" d="M170.2,110.2h-2.1v7.1h-1.9v-7.1h-2.1v-1.9h6V110.2z"/>
		<path class="st1" d="M177,108.4v8.9h-1.9v-8.9H177z"/>
		<path class="st1" d="M186.4,112.4h3.9v2.6c-0.2,0.3-0.4,0.7-0.7,0.9c-0.3,0.3-0.6,0.5-0.9,0.7c-0.3,0.2-0.7,0.4-1.1,0.5
			c-0.4,0.1-0.8,0.2-1.2,0.2c-0.6,0-1.2-0.1-1.7-0.4c-0.5-0.2-1-0.6-1.4-1c-0.4-0.4-0.7-0.9-1-1.4c-0.2-0.5-0.4-1.1-0.4-1.7
			c0-0.6,0.1-1.2,0.4-1.7c0.2-0.5,0.6-1,1-1.4c0.4-0.4,0.9-0.7,1.4-1c0.5-0.2,1.1-0.4,1.7-0.4c0.8,0,1.5,0.2,2.1,0.6
			c0.6,0.4,1.2,0.9,1.6,1.5l-1.3,1.4c-0.2-0.5-0.5-0.8-0.9-1.1c-0.4-0.3-0.9-0.4-1.4-0.4c-0.4,0-0.7,0.1-1,0.2
			c-0.3,0.1-0.6,0.3-0.8,0.6c-0.2,0.2-0.4,0.5-0.6,0.8c-0.1,0.3-0.2,0.7-0.2,1c0,0.4,0.1,0.7,0.2,1c0.1,0.3,0.3,0.6,0.6,0.8
			c0.2,0.2,0.5,0.4,0.8,0.6c0.3,0.1,0.7,0.2,1,0.2c0.2,0,0.4,0,0.6-0.1c0.2-0.1,0.4-0.1,0.6-0.2c0.2-0.1,0.4-0.2,0.6-0.4
			c0.2-0.2,0.3-0.3,0.4-0.5h-2.2V112.4z"/>
		<path class="st1" d="M196.9,108.4v8.9h-1.9v-8.9H196.9z"/>
		<path class="st1" d="M208,117.3l-0.5-1.3H204l-0.5,1.3h-2l3.2-8.9h2.2l3.2,8.9H208z M204.6,114.2h2.3l-1.1-3.2L204.6,114.2z"/>
		<path class="st1" d="M220.6,108.4h1.9v8.9h-2.1l-3.8-5.8v5.8h-1.9v-8.9h2.1l3.8,5.8V108.4z"/>
		<path class="st1" d="M233.7,117.3l-0.5-1.3h-3.6l-0.5,1.3h-2l3.2-8.9h2.2l3.2,8.9H233.7z M230.3,114.2h2.3l-1.1-3.2L230.3,114.2z"
			/>
		<path class="st1" d="M240,117.3v-8.9h1.9v7.1h4.2v1.9H240z"/>
		<path class="st1" d="M253.3,110.2v1.8h4v1.9h-4v1.5h4.2v1.9h-6v-8.9h6v1.9H253.3z"/>
	</g>
	<circle class="st1" cx="52.8" cy="112.8" r="1.6"/>
	<circle class="st1" cx="267.3" cy="112.8" r="1.6"/>
</g>
</svg>
