<?xml version="1.0" encoding="utf-8"?>
<!-- Generator: Adobe Illustrator 19.2.0, SVG Export Plug-In . SVG Version: 6.00 Build 0)  -->
<svg version="1.1" id="Capa_1" xmlns="http://www.w3.org/2000/svg" xmlns:xlink="http://www.w3.org/1999/xlink" x="0px" y="0px"
	 viewBox="0 0 433.7 158.7" style="enable-background:new 0 0 433.7 158.7;" xml:space="preserve">
<style type="text/css">
	.st0{fill:#FFFFFF;}
</style>
<g>
	<g>
		<path class="st0" d="M174.6,10.5c0.2-0.4,0.3-0.6,0.3-0.8c0.1-0.2,0.1-0.3,0.1-0.4c0.1,0,0.2-0.1,0.4-0.1c0.2,0,0.5,0,1-0.1
			c1.9-0.1,3.5-0.2,4.7-0.3c1.2,0,2.1-0.1,2.7-0.1c0.6,0,1.4,0,2.3,0c0.9,0,2,0,3.1,0c1.2,0,2.2,0,3,0c0.9,0,1.6,0,2.2,0
			c0.8,0,1.3-0.5,1.5-1.5c0.3-1.5-0.5-2.3-2.3-2.3c-1,0-2.1,0-3.4,0.1c-1.3,0-2.7,0.1-4.3,0.2c-1.5,0.1-3.2,0.2-4.9,0.3
			c-1.7,0.1-3.4,0.3-5.2,0.4c0.1-0.6,0-1-0.1-1.3c-0.1-0.3-0.4-0.4-0.9-0.4c-0.6,0-1.2,0.5-1.7,1.5c-0.2,0.2-0.3,0.3-0.6,0.4
			c-0.2,0.1-0.5,0.2-0.9,0.2c-2.2,0.2-4.2,0.4-6,0.6c-1.8,0.2-3.3,0.4-4.4,0.5c-1.5,0.2-2.7,0.3-3.7,0.5c-1,0.1-1.7,0.3-2.2,0.4
			c-1.9,0.6-2.9,1.3-3.1,2.2c-0.1,0.5,0.1,1,0.4,1.3c0.3,0.4,0.9,0.7,1.8,0.9c1.3,0.4,2.4,0.5,3.3,0.5c1.6,0,2.5-0.4,2.6-1.1
			c0.1-0.5-0.2-0.9-0.8-1.2c0.5-0.1,1.2-0.2,1.9-0.3c0.7-0.1,1.5-0.3,2.4-0.4c2.1-0.3,3.8-0.5,5-0.7c1.2-0.1,1.9-0.2,2.2-0.2
			c0.3,0,0.4,0.2,0.3,0.7c0,0.2,0,0.4-0.1,0.7c0,0,0,0.1-0.1,0.1c0,0-0.1,0.1-0.1,0.2c-0.7,2.3-1.5,4.7-2.2,7.4
			c-0.8,2.6-1.6,5.5-2.4,8.5c-0.9,3.2-0.6,2.1-1.2,4.4c-0.5,2.3-1,4.2-1.2,5.6c-0.5,3.1-0.1,4.6,1.4,4.6c0.5,0,1.3-0.6,2.4-1.9
			l-0.1,0.1c0.9-1.2,1.5-2,1.5-2.5c0.1-0.7-0.1-1.1-0.7-1.1c-0.2,0-0.5,0.1-0.9,0.2l0.1,0l-0.4,0.2c-0.1,0-0.1,0-0.1-0.1
			c0.1-0.6,0.5-2.2,1.1-4.6c0.6-2.4,0.5-2,1.7-6.3C170.5,24.6,174.2,11.5,174.6,10.5z"/>
		<path class="st0" d="M253.5,22.7c1,0,1.7-0.9,2-2.6c0.3-1.8,0-2.7-1-2.7c-1.1,0-1.8,0.9-2.1,2.8C252.2,21.9,252.5,22.7,253.5,22.7
			z"/>
		<path class="st0" d="M272.4,36.5c0.7-0.3,1.5-0.7,2.3-1.3c1.7-1.3,2.7-2.5,2.9-3.6c0.2-1.1-0.2-1.6-1.2-1.6c0,0-0.1,0-0.2,0
			c-0.1,0-0.2,0.1-0.2,0.1c-0.3,0.2-0.5,0.4-0.7,0.6c-0.2,0.2-0.4,0.4-0.6,0.6c-0.2,0.2-0.3,0.3-0.5,0.5c-0.2,0.2-0.3,0.3-0.5,0.5
			c-0.8,0.8-1.8,1.3-2.9,1.3c-0.6,0-0.8-0.6-0.6-1.9c0-0.2,0.1-0.4,0.2-0.7c0.1-0.3,0.2-0.6,0.4-1c0.1-0.3,0.2-0.6,0.4-0.8
			c0.1-0.2,0.2-0.6,0.3-1c0.2-1.1-0.4-1.7-1.7-1.7c-0.2,0-0.4,0.1-0.7,0.3c0-0.4-0.1-0.8-0.3-1.1c-0.2-0.4-0.5-0.7-0.8-1
			c-0.3-0.3-0.7-0.5-1.1-0.7c-0.4-0.2-0.9-0.2-1.3-0.2c-1.5,0-3.4,1.4-5.5,4.2l0.1,0l-2,2c-1.1,1.1-1.7,1.8-1.8,2.1
			c-0.9,1.1-1.8,1.7-2.6,1.7c-1,0-1.3-0.7-1.1-2c0-0.3,0.1-0.6,0.3-1.1c0.1-0.5,0.3-1,0.5-1.6c0.3-0.7,0.5-1.3,0.6-1.7
			c0.1-0.5,0.2-0.9,0.3-1.3c0.2-1.1-0.4-1.7-1.6-1.7c-0.4,0-0.8,0.3-1.1,0.8c-0.5,0.9-0.9,1.5-1.1,1.9c-0.2,0.4-0.4,0.6-0.4,0.7
			c-0.3,0.4-0.6,0.7-1,1.1c-0.1,0.1-0.3,0.2-0.4,0.3c-0.1,0-0.4,0.2-0.9,0.6c-0.5,0.4-1.3,1-2.2,1.8c-1.5,1.4-2.7,2-3.5,2
			c-0.3,0-0.3-0.3-0.2-1c0.1-0.3,0.2-0.6,0.3-0.9c0.1-0.3,0.3-0.7,0.6-1.2c0.6-1,0.9-1.8,1.1-2.2c0.2-1.1-0.4-2-1.5-2.9
			c-0.9-0.6-1.3-1.2-1.1-1.9c0.2-1.5-0.2-2.3-1.4-2.3c-1.4,0-2.2,0.6-2.4,1.8c0,0.2,0,0.4,0,0.6c0,0.2,0,0.5,0.1,0.7
			c0,0.2,0,0.3,0.1,0.5c0,0.2,0.1,0.3,0,0.4c-0.1,0.5-0.9,1.5-2.4,3c-0.1,0.1-0.1,0.1-0.2,0.2c0-0.5-0.1-0.9-0.4-1.4
			c-0.5-1.2-1.5-2.3-1.6-2.2c-0.8-0.5-1.6-0.8-2.2-0.8c-0.2,0-0.3,0-0.3,0c-0.1,0-0.1,0-0.2,0.1c0.2-1-0.3-1.5-1.5-1.5
			c-2.2,0-4.1,2.1-5.8,6.4c-0.1,0.3-0.2,0.5-0.4,0.8c-0.2,0.3-1,0.1-1.6,0.7c-0.6,0.6-1.2,2.8-1.5,2.8c-1.7,0-2.3-1.6-1.7-4.7
			c0.2-1.2,0.6-2.8,1.3-4.7c0.7-1.9,1.5-4.2,2.4-6.7c0.3,0,0.8,0,0.9,0c0.5,0,0.9,0,1.4,0c0.8,0,1.5,0,2,0c1.5,0,2.7,0,3.8,0h2.8
			c2.2,0,3.4-0.6,3.6-1.7c0.2-1.2-0.3-1.8-1.6-1.8c-0.2,0-0.4,0.1-0.5,0.4c-0.1,0.3-0.1,0.5,0.1,0.6c-0.5-0.1-1.8-0.2-3.7-0.4
			c-1.9-0.2-4.5-0.2-7.7-0.1c0,0-0.1,0-0.1,0c0.2-0.6,0.3-1.2,0.4-1.7c0.1-0.5,0.2-0.8,0.2-1.1c0.2-1.4-0.3-2.1-1.5-2.1
			c-0.5,0-0.9,0.4-1.4,1.2c-0.2,0.3-0.7,1.7-1.3,3.6c-1,0-2,0-3.1,0.1c0.2-0.6,0.3-1.2,0.4-1.7c0.1-0.5,0.2-0.8,0.2-1.1
			c0.2-1.4-0.3-2.1-1.5-2.1c-0.5,0-0.9,0.4-1.4,1.2c-0.5,0.8-0.9,2.1-1.3,3.8c-1.1,0.1-2.2,0.1-3.1,0.1c-1,0-2,0.1-3.2,0.1
			c-3.5,0.3-5.7,0.6-6.4,1.1c-0.7,0.5-1.2,1-1.3,1.5c-0.3,1.6,0.6,2.5,2.7,2.5c0.5,0,0.8-0.1,1-0.3c0.2-0.2,0.3-0.4,0.4-0.7
			c0-0.1,0-0.1,0-0.2c0-0.1,0-0.1-0.1-0.2l-0.3-0.5c0.1,0,0.2,0,0.4,0c0.2,0,0.4,0,0.7,0c1.6-0.1,3.1-0.2,4.4-0.2s2.6-0.1,3.7-0.1
			c-0.8,1.9-1.4,3.8-2,5.7c-0.6,1.8-1,3.5-1.2,4.9c-0.1,0.6-0.1,1.1-0.2,1.7c-0.2,0.2-0.4,0.3-0.5,0.5c-0.2,0.2-0.4,0.4-0.6,0.6
			c-0.2,0.2-0.3,0.3-0.5,0.5c-0.2,0.2-0.3,0.3-0.5,0.5c-0.8,0.8-1.8,1.3-2.9,1.3c-0.6,0-0.8-0.6-0.6-1.9c0-0.2,0.1-0.4,0.2-0.7
			c0.1-0.3,0.2-0.6,0.4-1c0.1-0.3,0.2-0.6,0.4-0.8c0.1-0.2,0.2-0.6,0.3-1c0.2-1.1-0.4-1.7-1.7-1.7c-0.2,0-0.4,0.1-0.7,0.3
			c0-0.4-0.1-0.8-0.3-1.1c-0.2-0.4-0.5-0.7-0.8-1c-0.3-0.3-0.7-0.5-1.1-0.7c-0.4-0.2-0.9-0.2-1.3-0.2c-1.5,0-3.4,1.4-5.5,4.2l0.1,0
			l-1.3,1.3c-0.2,0.1-0.3,0.2-0.6,0.4c-0.5,0.4-1.3,1-2.2,1.8c-1.5,1.4-2.7,2-3.5,2c-0.3,0-0.3-0.3-0.2-1c0.1-0.3,0.2-0.6,0.3-0.9
			c0.1-0.3,0.3-0.7,0.6-1.2c0.6-1,0.9-1.8,1.1-2.2c0.2-1.1-0.4-2-1.5-2.9c-0.9-0.6-1.3-1.2-1.1-1.9c0.2-1.5-0.2-2.3-1.4-2.3
			c-1.4,0-2.2,0.6-2.4,1.8c0,0.2,0,0.4,0,0.6c0,0.2,0,0.5,0.1,0.7c0,0.2,0,0.3,0.1,0.5c0,0.2,0.1,0.3,0,0.4
			c-0.1,0.5-1.6,2.4-3.1,3.9c-1.7,1.7-2.5,2.8-2.6,3.2c-0.2,1,0.2,1.5,1.2,1.5c0.9,0,2.1-1,3.6-2.9c0.9-1.2,2.3-3.1,2.7-3.9
			c0,0.1,0.1,0.2,0.1,0.3c0.1,0.1,0.1,0.2,0.2,0.2c0.5,0.4,0.7,0.8,0.7,1.2c0,0.2-0.1,0.5-0.2,0.8c-0.1,0.3-0.3,0.8-0.6,1.3
			c-0.5,1-0.7,1.8-0.8,2.4c-0.4,2.5,0.5,3.7,2.7,3.7c0.6,0,1.3-0.2,2.1-0.6c0.8-0.4,1.7-1,2.8-1.7c0.5-0.4,1-0.7,1.4-1.1
			c0,0,0,0,0.1,0c0.2-0.1,0.4-0.2,0.6-0.3c0.1,0.5,0.1,1,0.2,1.3c0.1,0.4,0.2,0.7,0.2,1c0.5,1,1.5,1.5,3,1.5c0.6,0,1.3-0.2,1.9-0.6
			c0.6-0.4,1.3-1,1.8-1.7c0.3-0.4,0.5-0.7,0.8-1.1c0.3-0.4,0.6-0.7,0.9-1.1v0.6v1.7c0.3,1.4,1.2,2.1,2.8,2.1c0.5,0,1.2-0.2,1.9-0.5
			c0.7-0.3,1.5-0.7,2.3-1.3c0.6-0.4,1.1-0.9,1.5-1.3c0,0,0,0.1,0,0.2c0.4,1,0.9,1.8,1.6,2.3c0.7,0.5,1.5,0.8,2.5,0.8
			c0.9,0,2.1-0.4,3.6-1.3c0.2,0.2,0.3,0.3,0.5,0.5c0.7,0.5,1.5,0.8,2.5,0.8c0.8,0,2.8-0.7,3.9-3.7c0.1,0.5,0.2,0.9,0.4,1.4
			c0.2,0.5,0.5,0.9,0.9,1.3c0.5,0.6,1.1,1,1.8,1.4c0.6,0.3,1.3,0.5,2.1,0.5c1.6,0,3.1-0.8,4.5-2.5c0.6-0.7,1-1.4,1.4-2.1
			c0.9-0.2,2-1.1,3.4-2.9c0.9-1.2,1.6-2.2,2-3c0,0.1,0.1,0.2,0.1,0.3c0.1,0.1,0.1,0.2,0.2,0.2c0.5,0.4,0.7,0.8,0.7,1.2
			c0,0.2-0.1,0.5-0.2,0.8c-0.1,0.3-0.3,0.8-0.6,1.3c-0.5,1-0.7,1.8-0.8,2.4c-0.4,2.5,0.5,3.7,2.7,3.7c0.6,0,1.3-0.2,2.1-0.6
			c0.8-0.4,1.7-1,2.8-1.7c0.3-0.2,0.6-0.4,0.9-0.7c0.5-0.2,1.1-0.7,1.9-1.5c0.2-0.2,0.3-0.3,0.5-0.4c0.1-0.1,0.2-0.2,0.3-0.3
			c-0.4,3.5,0.7,5.2,3.3,5.2c1,0,2.4-0.8,4.3-2.3c0.6-0.5,1-0.9,1.4-1.3c0.1,0.4,0.1,0.8,0.2,1.1c0.1,0.4,0.2,0.7,0.2,1
			c0.5,1,1.5,1.5,3,1.5c0.6,0,1.3-0.2,1.9-0.6c0.6-0.4,1.3-1,1.8-1.7c0.3-0.4,0.5-0.7,0.8-1.1c0.3-0.4,0.6-0.7,0.9-1.1v0.6v1.7
			c0.3,1.4,1.2,2.1,2.8,2.1C271,37,271.7,36.8,272.4,36.5z M199.1,28.6c-0.3,0.5-0.7,1-1.1,1.5c-1.6,2.3-2.9,3.4-3.9,3.4
			c-0.6,0-0.8-0.8-0.5-2.4c0.1-0.5,0.2-1,0.4-1.5c0.2-0.5,0.5-1,0.8-1.4c0.6-0.9,1.3-1.4,2-1.5c-0.1,0,0.1,0.1,0.5,0.2
			c0.4,0.1,0.7,0.2,1,0.2l0,0c0.3,0.1,0.5,0.2,0.8,0.3c0.3,0.1,0.6,0.1,0.8,0.1C199.7,27.7,199.4,28.1,199.1,28.6z M212.9,33.5
			c-1.7,0-2.3-1.6-1.7-4.7c0.2-1.2,0.6-2.8,1.3-4.7c0.7-2,1.5-4.2,2.4-6.7c0.7,0,1.5,0,2.3,0c0.2,0,0.5,0,0.7,0
			c-0.9,2.6-1.7,5.2-2,6c-0.6,1.8-1,3.5-1.2,4.9c-0.2,1-0.2,2-0.2,3c0,0.6,0.1,1.1,0.2,1.5c-0.3,0.2-0.6,0.4-0.8,0.5
			C213.4,33.4,213.1,33.5,212.9,33.5z M231.5,30.8c-0.1,0.5-0.2,0.9-0.4,1.4c-0.2,0.5-0.5,0.9-0.8,1.2c-0.3,0.3-0.7,0.6-1.1,0.8
			c-0.4,0.2-0.8,0.4-1.1,0.4c-0.5,0-0.8-0.2-1.1-0.5c-0.3-0.3-0.5-0.8-0.8-1.3c-0.2-0.5-0.3-1.1-0.3-1.7c0-0.6,0-1.2,0.1-1.7
			c0.1-0.5,0.2-1,0.4-1.4c0.2-0.4,0.5-0.8,0.7-1.2c0.3-0.3,0.5-0.5,0.7-0.7c0.2-0.2,0.5-0.4,0.9-0.6c0.1-0.1,0.2-0.1,0.3-0.2
			c-0.1,0.1-0.1,0.2-0.1,0.3c0,0.1,0,0.2,0,0.3c-0.1,0.7,0,1.3,0.4,1.8c0.4,0.5,0.9,0.7,1.6,0.7c0.2,0,0.4,0,0.5-0.1
			C231.7,28.6,231.7,29.4,231.5,30.8z M267.1,29c-0.3,0.5-0.7,1-1.1,1.5c-1.6,2.3-2.9,3.4-3.9,3.4c-0.6,0-0.8-0.8-0.5-2.4
			c0.1-0.5,0.2-1,0.4-1.5c0.2-0.5,0.5-1,0.8-1.4c0.6-0.9,1.3-1.4,2-1.5c-0.1,0,0.1,0.1,0.5,0.2c0.4,0.1,0.7,0.2,1,0.2l0,0
			c0.3,0.1,0.5,0.2,0.8,0.3c0.3,0.1,0.6,0.1,0.8,0.1C267.8,28.1,267.5,28.5,267.1,29z"/>
		<g>
			<path class="st0" d="M87.6,72.5c0.1,0,0.2,0,0.3,0c1,0,1.9,0,2.8,0.1c1.2-1.4,2.7-2.7,4.3-3.7c-0.4-0.1-0.7-0.2-1-0.3
				c-2.6-0.8-5-1.2-7.3-1.2c-1.6,0-3.1,0.2-4.6,0.5c-8.9,2.1-15.9,9.8-16.9,18.8c-0.5,4.8,0.3,9.5,2.5,13.6c2.2,4.1,5.5,7.2,9.7,9.3
				c3.7,1.8,8.1,2.4,11.2,2.2c1.3-0.1,5.7-1.1,5.7-1.1c-1.6-1.2-3-2.5-3.9-4c-0.8,0.1-1.7,0.1-2.5,0.1c-4.9,0-9.4-1.6-12.1-4.3
				c-3-3.1-4.9-7.2-5.2-11.5c-0.3-4.4,0.9-8.6,3.6-11.9C77.8,74.8,82.3,72.6,87.6,72.5z"/>
			<path class="st0" d="M118.2,72.5c0.1,0,0.2,0,0.3,0c5.4,0,9.4,1.5,12.5,4.8l-1.3-7.6c-0.5-0.1-1-0.2-1.5-0.3
				c-1.2-0.2-2.4-0.5-3.5-0.8c-2.6-0.8-5-1.2-7.3-1.2c-1.6,0-3.1,0.2-4.6,0.5c-8.9,2.1-15.9,9.8-16.9,18.8
				c-0.5,4.8,0.3,9.5,2.5,13.6c2.2,4.1,5.5,7.3,9.7,9.3c4,1.9,7.3,2.4,11.6,2.4s10-2.4,10-2.4l0.1-0.7c0.2-0.9,0.3-2,0.5-3.2
				c0.2-1.1,0.4-2.2,0.6-3.3l0-0.1c-2.9,2.9-7.3,4.6-12.3,4.6c-4.9,0-9.4-1.6-12.1-4.3c-3-3.1-4.9-7.2-5.2-11.5
				c-0.3-4.4,0.9-8.6,3.6-11.9C108.4,74.8,112.9,72.6,118.2,72.5z"/>
			<path class="st0" d="M207.6,67.7c-0.1,0-0.1,0-0.2,0c-5.8,0.1-11.4,2.4-15.5,6.6c-4.2,4.2-6.4,9.7-6.4,15.6
				c0.1,5.9,2.4,11.5,6.5,15.6c4.1,4.1,9.6,6.4,15.5,6.4h0c5.8,0,11.3-2.3,15.5-6.5c4.2-4.2,6.5-9.8,6.4-15.6
				c0-5.8-2.3-11.4-6.5-15.6C218.8,70,213.4,67.7,207.6,67.7z M219.1,101.9c-3.1,3.2-7.2,5-11.6,5l-0.1,0c-4.4,0-8.5-1.8-11.6-5.1
				c-3.1-3.2-4.8-7.6-4.7-12.2c0-4.5,1.7-8.8,4.8-11.9c3.1-3.2,7.2-4.9,11.6-4.9l0.1,0c4.4,0,8.5,1.8,11.6,5c3.1,3.2,4.8,7.5,4.8,12
				C224,94.4,222.2,98.7,219.1,101.9z"/>
			<path class="st0" d="M162.9,76.2c0-2.6,0-5.3,0-7.9h-5.4v23.5c0,0.2-0.2,0.4-0.4,0.4H145c-0.2,0-0.4-0.2-0.4-0.4V68.2h-5.6
				c0,0.3,0.1,0.7,0.1,1c0.1,1,0.2,2,0.2,3c0,12.3,0,23.7,0,34.8c0,1.1-0.1,2.2-0.2,3.3c0,0.3-0.1,0.7-0.1,1h5.7V97.8
				c0-0.2,0.2-0.4,0.4-0.4h12.2c0.2,0,0.4,0.2,0.4,0.4v13.6l2.4,0c1,0,1.9,0,2.9,0c0.1,0,0.1,0,0.2,0
				C162.8,99.6,162.9,87.7,162.9,76.2z"/>
			<path class="st0" d="M51,106.5c-0.8,0-1.7,0-2.6,0c-0.7,0-1.4,0-2,0c0,0,0,0,0,0c-0.1,0-0.2,0-0.3-0.1c-0.1-0.1-0.1-0.2-0.1-0.3
				V98c0-0.2,0.2-0.4,0.4-0.4h9.3v-5.4h-9.3c-0.2,0-0.4-0.2-0.4-0.4V73.7c0-0.2,0.2-0.4,0.4-0.4h11.9l-0.9-5.2h-17
				c0,0.4,0.1,0.8,0.1,1.1c0.1,1.1,0.2,2.1,0.2,3.1c0,11.8,0,23.4,0,34.6c0,1.1-0.1,2.2-0.2,3.4c0,0.4-0.1,0.8-0.1,1.2h17.8l1-5.4
				c-2.1,0.4-4.1,0.5-5.6,0.5C52.7,106.6,51.8,106.6,51,106.5z"/>
			<path class="st0" d="M22.1,90.3c-1,3.9-2,7.9-2.9,11.9c0,0.2-0.2,0.3-0.3,0.3c0,0-0.1,0-0.1,0c-0.1,0-0.2-0.1-0.3-0.1
				c-0.3-0.3-0.5-0.7-0.6-1.1c-0.4-1.7-0.9-3.4-1.3-5.1c-1.1-4.2-2.2-8.6-3.1-12.9c-0.3-1.5-0.8-3-1.2-4.5
				c-0.9-3.4-1.9-6.9-2.1-10.5H4.1c0.1,0.4,0.3,0.7,0.4,1.1c0.5,1.2,1,2.4,1.3,3.6c2.8,10.7,5.7,21.6,8.7,33.4
				c0.3,1.2,0.5,2.3,0.6,3.5c0.1,0.4,0.1,0.9,0.2,1.4h6.3c0-0.3,0-0.6,0-0.9c0-0.9,0.1-1.8,0.3-2.7c1.3-4.9,2.6-9.9,3.8-14.7
				c2-8.2,4.2-16.7,6.8-24.8H27C25.7,75.8,23.8,83.2,22.1,90.3z"/>
			<path class="st0" d="M172.4,68.3c0,2.1,0,4.2,0,6.3c0,5,0,10.2,0,15.2c0,5.1,0,10.3-0.1,15.3c0,2.1,0,4.2,0,6.3h5.3
				c-0.2-14.4-0.2-28.9,0-43.1H172.4z"/>
			<path class="st0" d="M292.3,67.8c-5.8,0-11.3,2.3-15.5,6.4c-4.1,4.1-6.4,9.6-6.4,15.5c0,5.9,2.2,11.5,6.4,15.7
				c4.1,4.2,9.7,6.5,15.6,6.5l0.1,0c5.7,0,11.1-2.3,15.3-6.5c4.1-4.2,6.4-9.7,6.4-15.5c0-5.8-2.3-11.3-6.4-15.5
				C303.6,70.1,298.1,67.8,292.3,67.8z M294.8,106.6c-0.6,0.1-1.2,0.1-1.7,0.2c-0.3,0-0.5,0-0.8,0.1c0,0,0,0,0,0h0
				c-5.8,0-11-3.1-14-8.2c-3.1-5.4-3.2-11.8-0.2-17.2c3-5.4,8.3-8.6,14.2-8.6c1,0,2.1,0.1,3.1,0.3c6.9,1.4,12.4,7.6,13.1,14.7
				C309.4,97.1,303.7,105,294.8,106.6z"/>
			<path class="st0" d="M423.1,74.3c-4.1-4.2-9.6-6.5-15.4-6.5h0c-12,0-21.8,9.8-21.9,21.9c0,5.9,2.2,11.5,6.3,15.7
				c4.1,4.2,9.6,6.5,15.6,6.5l0.2,0c5.7,0,11.1-2.3,15.2-6.5c4.1-4.2,6.4-9.7,6.4-15.5C429.6,84,427.3,78.5,423.1,74.3z M421.2,99.5
				c-2.2,3.4-5.5,5.7-9.5,6.8c-0.9,0.2-1.8,0.4-2.7,0.5c-0.4,0.1-0.8,0.1-1.2,0.2c0,0,0,0-0.1,0c0,0,0,0,0,0
				c-5.9-0.1-11.1-3.3-14.1-8.4c-3.1-5.4-3.1-11.8,0-17.2c1.5-2.6,3.6-4.7,6.1-6.2c2.5-1.5,5.3-2.2,8.1-2.2c1.1,0,2.1,0.1,3.2,0.3
				c6.9,1.4,12.3,7.5,13,14.6C424.3,92,423.4,96.1,421.2,99.5z"/>
			<path class="st0" d="M378.8,106.8c0-10.6,0-21.3,0-31.8c0-1.6,0.1-3.3,0.2-4.9c0-0.6,0.1-1.2,0.1-1.8h-5.7
				c0.5,4.7,0.4,9.4,0.3,13.9c-0.1,2.6-0.1,5.4,0,8c0,0.2-0.1,0.3-0.2,0.4c-0.1,0-0.1,0.1-0.2,0.1c-0.1,0-0.2,0-0.2-0.1
				c-0.5-0.3-0.8-0.7-1-1c-1-1.3-2-2.7-3-4c-2.3-3.1-4.6-6.3-7.1-9.3c-1.7-2-2.1-4.2-1.5-7.1c0.1-0.3,0.2-0.7,0.3-1h-5.9
				c0,0.3,0.1,0.7,0.1,1c0.1,1.1,0.2,2.1,0.2,3.2c0,10.7,0,21.4,0,31.7c0,1.7-0.1,3.5-0.2,5.2c0,0.6-0.1,1.3-0.1,1.9h5.6
				c-0.4-5.4-0.4-10.9-0.3-16.3c0-3.6,0.1-7.4,0-11.1c0-0.2,0.1-0.4,0.4-0.4l0.3-0.1c0,0,0.1,0,0.1,0c0.1,0,0.3,0.1,0.4,0.2l2.1,2.7
				c3.3,4.3,6.6,8.8,10,13.2c0.2,0.2,0.5,0.7,0.5,1.3c0,1.1,0,2.3,0,3.4c0.1,2.3,0.1,4.7-0.4,7h5.9c0-0.4-0.1-0.8-0.1-1.1
				C379,109,378.8,108,378.8,106.8z"/>
			<path class="st0" d="M345.1,107.3c0-0.3,0-0.6,0-1c-0.6,0.2-1.2,0.2-1.8,0.2c-4.1,0-8.5-3.6-8.5-9c0-0.1,0-0.2,0.1-0.2l0,0
				c0-0.1,0.1-0.2,0.2-0.3c0.2-0.1,0.4-0.2,0.5-0.3c0.3-0.2,0.6-0.3,0.9-0.5c5.5-3.2,8.1-7.9,8-13.9c-0.2-6.1-3.2-10.5-9-13.1
				c-2.8-1.3-5.7-1.5-8.5-1.5c-0.7,0-1.4,0-2.1,0c-0.7,0-1.4,0-2.1,0c-0.3,0-0.7,0-1,0c0,0.4,0.1,0.8,0.1,1.1
				c0.1,1.2,0.3,2.3,0.3,3.4c0,11.1,0,22.2,0,33.2c0,1.4-0.1,2.8-0.2,4.2c0,0.5-0.1,1-0.1,1.5h5.6c-0.4-7.5-0.3-15.1-0.3-22.4
				c0-5,0.1-10.3,0-15.4c0-0.1,0-0.2,0.1-0.3c0.1-0.1,0.2-0.1,0.3-0.1c0.3,0,0.6,0,0.9,0c0.2,0,0.5,0,0.7,0c0.3,0,0.6,0,0.8,0
				c5,0.2,9.2,4.5,9.3,9.6c0.2,5.2-3.6,9.7-8.6,10.2c-0.6,0.1-0.7,0.2-0.8,0.8c0,0.4-0.1,0.8-0.1,1.2c-0.1,1-0.2,2-0.1,3
				c0.2,6.4,3.9,11.7,9.5,13.6c1.3,0.4,2.8,0.5,4.3,0.5c0.2,0,0.4,0,0.6,0l0,0c0.2,0,0.6,0,0.8-0.2c0.1-0.1,0.2-0.3,0.2-0.6
				C345.1,109.8,345.1,108.5,345.1,107.3z"/>
			<path class="st0" d="M251.9,73.3c0.1-0.1,0.2-0.1,0.3-0.1c0,0,0,0,0,0c0.7,0,1.4,0.1,2.3,0.1c0.7,0,1.5,0,2.2,0
				c0.7,0,1.5,0,2.2,0c1.6,0,3.4,0.1,5.3,0.5l-1-5.4h-16.9c0,0.6,0.1,1.1,0.1,1.7c0.1,1.5,0.2,2.8,0.2,4.2c0,10.8,0,21.8,0,32.7
				c0,1.2-0.1,2.3-0.3,3.5c0,0.4-0.1,0.7-0.1,1.1h5.8c-0.6-2.9-0.5-5.7-0.5-8.5c0-1.7,0.1-3.2,0-4.8c0-0.1,0-0.2,0.1-0.3
				c0.1-0.1,0.2-0.1,0.3-0.1h9.4v-5.4h-9.3c-0.2,0-0.4-0.2-0.4-0.4V73.6C251.8,73.5,251.8,73.4,251.9,73.3z"/>
		</g>
	</g>
	<g>
		<path class="st0" d="M94.6,151.5c-0.3,0.4-0.6,0.8-1,1.2c-0.4,0.4-0.8,0.7-1.2,0.9c-0.4,0.3-0.9,0.5-1.4,0.6
			c-0.5,0.1-1,0.2-1.6,0.2c-0.8,0-1.6-0.2-2.4-0.5c-0.7-0.3-1.4-0.8-1.9-1.3c-0.6-0.6-1-1.2-1.3-1.9c-0.3-0.7-0.5-1.5-0.5-2.4
			c0-0.8,0.2-1.6,0.5-2.4c0.3-0.7,0.8-1.4,1.3-1.9c0.6-0.6,1.2-1,1.9-1.3c0.7-0.3,1.5-0.5,2.4-0.5c0.5,0,1.1,0.1,1.6,0.2
			c0.5,0.1,1,0.3,1.4,0.6c0.4,0.3,0.9,0.6,1.2,0.9c0.4,0.4,0.7,0.8,1,1.2l-1.9,1.9c-0.1-0.3-0.3-0.6-0.5-0.9
			c-0.2-0.3-0.5-0.5-0.8-0.7c-0.3-0.2-0.6-0.4-1-0.5c-0.3-0.1-0.7-0.2-1.1-0.2c-0.5,0-1,0.1-1.4,0.3c-0.4,0.2-0.8,0.4-1.1,0.8
			c-0.3,0.3-0.6,0.7-0.8,1.1c-0.2,0.4-0.3,0.9-0.3,1.4c0,0.5,0.1,1,0.3,1.4c0.2,0.4,0.4,0.8,0.8,1.1c0.3,0.3,0.7,0.6,1.1,0.8
			c0.4,0.2,0.9,0.3,1.4,0.3c0.4,0,0.7-0.1,1.1-0.2c0.3-0.1,0.7-0.3,1-0.5c0.3-0.2,0.5-0.4,0.8-0.7c0.2-0.3,0.4-0.6,0.5-0.9
			L94.6,151.5z"/>
		<path class="st0" d="M109.4,142.1v6.7c0,0.3,0,0.7-0.1,1.1c-0.1,0.4-0.2,0.8-0.3,1.2c-0.2,0.4-0.4,0.8-0.6,1.2
			c-0.3,0.4-0.6,0.7-0.9,1.1c-0.4,0.3-0.8,0.6-1.3,0.7c-0.5,0.2-1.1,0.3-1.7,0.3h0c-0.7,0-1.3-0.1-1.9-0.3c-0.6-0.2-1.1-0.6-1.5-1
			c-0.4-0.4-0.7-0.8-0.9-1.3c-0.2-0.5-0.4-0.9-0.5-1.3c-0.1-0.4-0.2-0.8-0.2-1.1c0-0.3,0-0.5,0-0.6v-6.7h2.6v6.7c0,0.1,0,0.2,0,0.4
			c0,0.2,0,0.4,0.1,0.6c0.1,0.2,0.1,0.5,0.2,0.7c0.1,0.2,0.2,0.5,0.4,0.7c0.2,0.2,0.4,0.4,0.7,0.5c0.3,0.1,0.6,0.2,1,0.2
			c0.6,0,1-0.1,1.3-0.4c0.3-0.3,0.6-0.6,0.7-0.9c0.2-0.3,0.3-0.7,0.3-1c0-0.3,0.1-0.6,0.1-0.7v-6.7H109.4z"/>
		<path class="st0" d="M126.5,151.5c-0.3,0.4-0.6,0.8-1,1.2c-0.4,0.4-0.8,0.7-1.2,0.9c-0.4,0.3-0.9,0.5-1.4,0.6
			c-0.5,0.1-1,0.2-1.6,0.2c-0.8,0-1.6-0.2-2.4-0.5c-0.7-0.3-1.4-0.8-1.9-1.3c-0.6-0.6-1-1.2-1.3-1.9c-0.3-0.7-0.5-1.5-0.5-2.4
			c0-0.8,0.2-1.6,0.5-2.4c0.3-0.7,0.8-1.4,1.3-1.9c0.6-0.6,1.2-1,1.9-1.3c0.7-0.3,1.5-0.5,2.4-0.5c0.5,0,1.1,0.1,1.6,0.2
			c0.5,0.1,1,0.3,1.4,0.6c0.4,0.3,0.9,0.6,1.2,0.9c0.4,0.4,0.7,0.8,1,1.2l-1.9,1.9c-0.1-0.3-0.3-0.6-0.5-0.9
			c-0.2-0.3-0.5-0.5-0.8-0.7c-0.3-0.2-0.6-0.4-1-0.5c-0.3-0.1-0.7-0.2-1.1-0.2c-0.5,0-1,0.1-1.4,0.3c-0.4,0.2-0.8,0.4-1.1,0.8
			c-0.3,0.3-0.6,0.7-0.8,1.1c-0.2,0.4-0.3,0.9-0.3,1.4c0,0.5,0.1,1,0.3,1.4c0.2,0.4,0.4,0.8,0.8,1.1c0.3,0.3,0.7,0.6,1.1,0.8
			c0.4,0.2,0.9,0.3,1.4,0.3c0.4,0,0.7-0.1,1.1-0.2c0.3-0.1,0.7-0.3,1-0.5c0.3-0.2,0.5-0.4,0.8-0.7c0.2-0.3,0.4-0.6,0.5-0.9
			L126.5,151.5z"/>
		<path class="st0" d="M134.7,142.1v12.2h-2.5v-12.2H134.7z"/>
		<path class="st0" d="M149.6,142.1h2.6v12.3h-2.9l-5.3-8v8h-2.6v-12.3h2.9l5.3,8V142.1z"/>
		<path class="st0" d="M167.1,154.4l-0.6-1.8h-4.9l-0.6,1.8h-2.8l4.4-12.3h3l4.4,12.3H167.1z M162.4,150.1h3.1l-1.6-4.4L162.4,150.1
			z"/>
		<path class="st0" d="M196.5,154.4l-0.6-1.8h-4.9l-0.6,1.8h-2.8l4.4-12.3h3l4.4,12.3H196.5z M191.8,150.1h3.1l-1.6-4.4L191.8,150.1
			z"/>
		<path class="st0" d="M214.5,150c0.3,0.3,0.6,0.6,0.8,1s0.4,0.7,0.6,1.1c0.2,0.4,0.3,0.8,0.3,1.2c0.1,0.4,0.1,0.8,0.1,1.1h-1.3
			h-1.3c0-0.1,0-0.2,0-0.4c0-0.2-0.1-0.4-0.1-0.6c-0.1-0.2-0.1-0.5-0.3-0.7c-0.1-0.2-0.3-0.5-0.5-0.7c-0.2-0.2-0.4-0.4-0.7-0.5
			c-0.3-0.1-0.6-0.2-1.1-0.2h-3v3h-2.5v-12.3h5.5c0,0,0.2,0,0.4,0s0.4,0.1,0.7,0.2c0.3,0.1,0.6,0.2,0.9,0.4c0.3,0.2,0.7,0.4,1,0.7
			c0.9,0.9,1.4,2.2,1.4,3.8c0,0.6-0.1,1.2-0.3,1.7C215.1,149.3,214.8,149.7,214.5,150z M211.2,148.9c0.1,0,0.3,0,0.5-0.1
			c0.2,0,0.4-0.1,0.6-0.2c0.2-0.1,0.4-0.3,0.5-0.5c0.1-0.2,0.2-0.5,0.2-0.9c0-0.6-0.1-1-0.2-1.4c-0.2-0.3-0.3-0.6-0.5-0.8
			c-0.2-0.2-0.4-0.3-0.6-0.3c-0.2-0.1-0.4-0.1-0.5-0.1h-3v4.2H211.2z"/>
		<path class="st0" d="M230.6,144.7h-2.8v9.7h-2.6v-9.7h-2.8v-2.5h8.2V144.7z"/>
		<path class="st0" d="M240,142.1v12.2h-2.5v-12.2H240z"/>
		<path class="st0" d="M252.9,147.6h5.3v3.6c-0.3,0.5-0.6,0.9-1,1.3c-0.4,0.4-0.8,0.7-1.2,1c-0.5,0.3-0.9,0.5-1.5,0.6
			c-0.5,0.2-1.1,0.2-1.6,0.2c-0.8,0-1.6-0.2-2.4-0.5c-0.7-0.3-1.4-0.8-1.9-1.3c-0.6-0.6-1-1.2-1.3-1.9c-0.3-0.7-0.5-1.5-0.5-2.4
			c0-0.8,0.2-1.6,0.5-2.4c0.3-0.7,0.8-1.4,1.3-1.9c0.6-0.6,1.2-1,1.9-1.3c0.7-0.3,1.5-0.5,2.4-0.5c1.1,0,2.1,0.3,3,0.8
			c0.9,0.5,1.6,1.2,2.2,2l-1.8,1.9c-0.3-0.6-0.7-1.1-1.3-1.5c-0.6-0.4-1.2-0.6-2-0.6c-0.5,0-1,0.1-1.4,0.3c-0.4,0.2-0.8,0.4-1.1,0.8
			c-0.3,0.3-0.6,0.7-0.8,1.1c-0.2,0.4-0.3,0.9-0.3,1.4c0,0.5,0.1,1,0.3,1.4c0.2,0.4,0.4,0.8,0.8,1.1c0.3,0.3,0.7,0.6,1.1,0.8
			c0.4,0.2,0.9,0.3,1.4,0.3c0.3,0,0.5,0,0.8-0.1c0.3-0.1,0.6-0.2,0.8-0.3c0.3-0.2,0.5-0.3,0.8-0.5c0.2-0.2,0.4-0.5,0.6-0.7h-3V147.6
			z"/>
		<path class="st0" d="M267.4,142.1v12.2h-2.5v-12.2H267.4z"/>
		<path class="st0" d="M282.6,154.4l-0.6-1.8H277l-0.6,1.8h-2.8l4.4-12.3h3l4.4,12.3H282.6z M277.9,150.1h3.1l-1.6-4.4L277.9,150.1z
			"/>
		<path class="st0" d="M299.9,142.1h2.6v12.3h-2.9l-5.3-8v8h-2.6v-12.3h2.9l5.3,8V142.1z"/>
		<path class="st0" d="M317.8,154.4l-0.6-1.8h-4.9l-0.6,1.8h-2.8l4.4-12.3h3l4.4,12.3H317.8z M313.1,150.1h3.1l-1.6-4.4L313.1,150.1
			z"/>
		<path class="st0" d="M326.5,154.4v-12.3h2.6v9.7h5.8v2.6H326.5z"/>
		<path class="st0" d="M344.7,144.7v2.5h5.5v2.6h-5.5v2.1h5.7v2.6h-8.3v-12.2h8.3v2.5H344.7z"/>
	</g>
	<circle class="st0" cx="69.4" cy="148.3" r="2.2"/>
	<circle class="st0" cx="363.9" cy="148.3" r="2.2"/>
</g>
</svg>
