<?xml version="1.0" encoding="utf-8"?>
<!-- Generator: Adobe Illustrator 19.2.0, SVG Export Plug-In . SVG Version: 6.00 Build 0)  -->
<svg version="1.1" id="Capa_1" xmlns="http://www.w3.org/2000/svg" xmlns:xlink="http://www.w3.org/1999/xlink" x="0px" y="0px"
	 viewBox="0 0 101.5 132.2" style="enable-background:new 0 0 101.5 132.2;" xml:space="preserve">
<style type="text/css">
	.st0{fill:#231F20;}
	.st1{fill:#00ACCD;}
	.st2{fill:#FFFFFF;}
</style>
<g>
	<rect y="-2.1" class="st0" width="101.5" height="134.3"/>
	<path class="st1" d="M76.3,36.2c-0.7-2.5-1.7-4.7-2.3-5.7c-0.1-0.2-1.5-3-3.5-5.1c-1.6-1.7-3.6-3.3-4.7-4.1
		c-0.3-0.2-2.5-1.9-5.1-2.9c-2.1-0.8-4.4-1.3-5.7-1.6c-0.3-0.1-3.7-0.6-6.7-0.3c-2.4,0.2-4.7,0.9-6,1.3c-0.3,0.1-3.2,1-5.7,2.6
		c-1.9,1.2-3.7,2.8-4.7,3.7c-0.3,0.3-3,2.9-4.8,6.4c-0.9,1.8-1.6,3.9-2.1,5.4c-0.2,0.6-1.1,4.1-1,7.5c0.1,2.5,0.6,4.9,1,6.4
		c0.1,0.4,1,3.7,2.8,6.8c1.1,1.8,2.6,3.6,3.5,4.6c0.3,0.3,1.9,2,3.8,3.3c1.3,0.9,2.8,1.7,3.8,2.2c0.3,0.2,1.6,0.8,2.9,1.2
		c0.8,0.3,1.6,0.5,2.2,0.7c0.2,0.1,2.5,0.8,3.6,0.3c1.3-0.6,1.4-2.4,1.4-2.4l0.1-4.4c0,0,0.3-1.2,0.7-1.5c0.6-0.6,2.4-2.1,3.3-2.8
		c0.1-0.1,1.5-1.2,2.8-2.3c0.7-0.5,1.3-1.1,1.7-1.4c0.2-0.1,1.1-0.8,1.6-1.7c0.6-1.2,0.9-2.7,0.9-2.7l-0.7-14l-0.8-11.1h-2.4
		c0,0-0.8,0.4-1,0.7c-0.4,0.4-0.5,0.9-0.5,0.9l-0.1,4.9l0.1,10.5c0,0,0.1,0.9-0.8,0.9c-0.8,0-0.8-0.8-0.8-0.8V31v-4.9
		c0,0-0.3-1.6-2.2-1.6c-1.9,0-2.2,1.6-2.2,1.6V31l0,10.6c0,0-0.1,0.8-0.8,0.8s-0.7-0.8-0.7-0.8V31v-4.8c0,0-0.6-1.6-1.8-1.6
		c-1.2,0-2.2,0-2.2,0l-0.3,6.4l-0.4,6.8l-0.2,3.9l-0.2,4.5l-0.1,3.5c0,0,0.3,2.7,2.3,4.4c2,1.7,5.4,4.5,5.4,4.5s-1.6,1.3-1.8,2.9
		c-0.2,1.6-0.2,5.1-0.2,5.1s0.2,1.2-1.5,0.8c-0.8-0.2-3.7-0.8-6.6-2.4c-1.5-0.8-6.5-3.9-9.4-8.4c-1.4-2.2-4.1-7.1-4.2-12.2
		c0-2.7,0.3-9,3-13.4c1.6-2.6,5-7.8,9.9-10c1.5-0.7,5.9-3.2,11.1-3.2c2.7,0,7.6,0.2,11.9,2.5c2,1.1,5.8,3.3,8.2,6.4
		c1.5,2,3.9,5,4.9,9c0.5,2,1.4,6,1,9.3c-0.3,2.4-0.7,4.2-1.1,5.5c-0.2,0.6-1.4,4.3-3.5,7c-1.8,2.3-3.3,3.7-4.1,4.4
		c-0.2,0.2-2.4,1.9-4.7,3.1c-1.5,0.8-3.1,1.3-3.9,1.6c-0.2,0-1.3,0.4-2.3,0.6c-0.2,0-1,0.3-1.5,0.1c-0.3-0.1-0.4-0.7-0.4-0.8
		c-0.1-0.6-0.2-1.3-0.2-2.1c0-0.4,0-2.2-0.1-3.1c-0.2-1.2-0.7-1.6-0.7-1.6l-1.2,0.9c0,0,0.3,0.4,0.3,0.5c0,0.1,0,0.4,0,0.4
		s0.1,5.1,0.3,5.8c0.1,0.4,0.5,0.8,0.6,0.9c0.5,0.5,1.2,0.9,2.2,0.7c0.9-0.2,3.8-1,6.2-2c1.7-0.8,3.2-1.7,4.1-2.3
		c0.2-0.2,1.5-1,2.5-2c0.9-0.8,1.7-1.7,2.2-2.3c0.1-0.2,1.8-2,3.1-4.1c1-1.8,1.7-3.4,2.1-4.4c0.1-0.2,0.8-2.1,1.1-4.2
		c0.3-1.8,0.4-3.9,0.5-4.7C77.1,42.9,77.1,39.2,76.3,36.2z M45.8,53.7c-3-2.4-2.7-5-2.7-5l0.3-7.1L44.2,26c1.1,0,1.2,0.6,1.2,0.6
		l0,15c0,0,0,2.4,2.2,2.4c2.2,0,2.3-2.4,2.3-2.4l0-15c0,0,0.3-0.6,0.8-0.6s0.7,0.6,0.7,0.6l0,15c0,0,0.4,2.4,2.3,2.4
		s2.2-2.4,2.2-2.4s-0.1-14.4-0.1-15s1.1-0.6,1.1-0.6s1.1,19.6,1.3,22.7c0.2,3.1-2.9,5-2.9,5l-4.8,3.9C50.6,57.6,48.8,56,45.8,53.7z"
		/>
	<polygon class="st1" points="21.9,99.8 12,99.8 12,111.2 22.5,111.2 22.5,109.8 13.6,109.8 13.6,105.7 20.9,105.7 20.9,104.5 
		13.6,104.5 13.6,101.2 21.9,101.2 	"/>
	<path class="st1" d="M40.9,99.8h-1.8l-6.4,11.4l1.7,0l1.4-3H44l1.5,3h1.7L40.9,99.8z M36.5,107.1l3.5-6.2l3.5,6.2H36.5z"/>
	<polygon class="st1" points="56.6,99.8 56.6,101.2 61.7,101.2 61.7,111.3 63.2,111.3 63.2,101.2 68.2,101.2 68.2,99.8 	"/>
	<path class="st1" d="M80.5,108.9l-0.3,1.4c0,0,2.1,0.8,2.8,0.9c0.4,0.1,1.8,0.2,3.1,0.1c1.1-0.1,1.9-0.5,2.3-0.8
		c0.3-0.2,1-0.8,1.4-1.5c0.3-0.6,0.4-1.4,0.3-1.8c-0.1-0.3-0.2-0.5-0.3-0.7c-0.1-0.1-0.3-0.4-0.7-0.7c-0.2-0.2-1-0.5-2-0.8
		c-1.4-0.4-3.2-0.6-3.5-0.7c-0.8-0.2-1.2-0.5-1.4-0.7c0,0-0.5-0.5-0.4-1c0.1-0.4,0.5-0.7,0.7-1c0.1-0.1,0.7-0.6,2-0.7
		c1.3-0.1,3.3,0.3,3.3,0.3l1.7,0.4l0-1.3c0,0-1.3-0.4-2.6-0.5c-1.5-0.2-3-0.1-3.4,0c-0.5,0.1-0.9,0.2-1.3,0.4
		c-0.2,0.1-0.9,0.6-1.3,1.1c-0.2,0.3-0.6,0.8-0.6,1.4c0,0.7,0.5,1.4,0.6,1.6c0.1,0.1,0.5,0.6,1.4,0.9c0.9,0.3,2.2,0.6,2.8,0.7
		c0.1,0,1.4,0.2,2.3,0.5c0.6,0.2,0.9,0.5,1.1,0.7c0,0.1,0.4,0.6,0.2,1.1s-1.1,1.1-1.2,1.2c-0.1,0.1-1,0.4-2,0.5
		c-0.9,0.1-2-0.1-2.7-0.3L80.5,108.9z"/>
	<path class="st2" d="M10.9,79.6v1.5c0,0,0.6,0,0.6,0.7c0,0.7,0,2.4,0,2.7c0,0.7,0,2,0,2s0,4.7,5.6,4.7s5.7-4,5.7-4.7s0-2,0-2v-4.9
		h-1.3v7c0,0,0.2,3.1-4.3,3.1s-4.3-3.1-4.3-3.1v-5.5C12.9,81.1,12.8,79.6,10.9,79.6z"/>
	<path class="st2" d="M44.4,85.1c0,0,0.1-0.1,0.3-0.3c0.2-0.2,0.5-0.5,0.7-1c0.1-0.1,0.1-0.3,0.2-0.5c0.1-0.2,0.1-0.5,0.1-0.8
		c0-0.2,0-0.4-0.1-0.6c-0.1-0.3-0.2-0.5-0.3-0.7c-0.1-0.1-0.1-0.2-0.2-0.3c-0.2-0.2-0.4-0.4-0.5-0.6c-0.1-0.1-0.3-0.2-0.4-0.3
		c-0.2-0.1-0.3-0.2-0.5-0.2c-0.1,0-0.2-0.1-0.3-0.1c0,0-0.2,0-0.4,0c-1.7,0-8.6-0.1-8.6-0.1v11.1h8.6c0,0,0.4,0,0.5-0.1
		c0.4-0.1,1-0.3,1.5-0.9c0.5-0.5,0.9-1.2,0.9-2.2C45.8,86,44.4,85.1,44.4,85.1z M35.5,81.1c0,0,6.2,0,7.5,0.1c0.1,0,0.3,0,0.3,0
		c0.1,0.1,0.2,0.1,0.4,0.2c0,0,0.1,0.1,0.1,0.1c0.1,0.1,0.3,0.2,0.4,0.4c0.1,0.2,0.2,0.5,0.2,0.8c0,0.1,0,0.2,0,0.3
		c0,0.2-0.1,0.3-0.2,0.5c-0.1,0.1-0.2,0.3-0.3,0.4c-0.1,0.1-0.2,0.2-0.3,0.2c0,0-0.1,0.1-0.2,0.1c-0.1,0.1-0.2,0.1-0.2,0.2
		c-0.1,0-0.4,0.1-0.5,0.1c-1.7,0-7.2,0-7.2,0V81.1z M42.8,89.7h-7.3v-3.1c0-0.6,0.5-0.8,0.5-0.8h6.7c0,0,0.1,0,0.2,0
		c0.1,0,0.4,0.1,0.4,0.1c0.1,0.1,0.3,0.2,0.5,0.3c0.1,0.1,0.3,0.3,0.4,0.4c0.2,0.3,0.4,0.6,0.4,1c0,0.2,0,0.4-0.1,0.6
		c-0.1,0.2-0.2,0.4-0.4,0.6c-0.3,0.3-0.6,0.6-0.8,0.7C43.2,89.6,42.8,89.7,42.8,89.7z"/>
	<path class="st2" d="M67.3,79.6H57.1v11.2h10.7v-1.1h-9.4v-3.2c0,0,0.1-0.8,0.6-0.8c0.5,0,5.7,0,5.7,0v-1.2h-6.2v-3.5h8.9
		L67.3,79.6z"/>
	<path class="st2" d="M90.9,89.7c0,0-0.3,0.4-0.7,0c-0.4-0.4-2.5-3.2-2.5-3.2s3.4-0.3,3.4-3.3s-3.4-3.6-3.4-3.6l-8.4,0v11.1h1.3
		v-3.6c0,0,0.1-0.6,0.7-0.6c0.7,0,4.7,0,4.7,0l3.2,3.8c0,0,0.5,0.5,0.6,0.6c0.4,0.2,1.3,0.5,2.1-0.3L90.9,89.7z M80.6,85.4v-4.3
		l7.1,0c0,0,2.2,0.4,2.2,2c0,1.6-2.2,2.2-2.2,2.2H80.6z"/>
</g>
</svg>
