<?xml version="1.0" encoding="utf-8"?>
<!-- Generator: Adobe Illustrator 19.2.0, SVG Export Plug-In . SVG Version: 6.00 Build 0)  -->
<svg version="1.1" id="Capa_1" xmlns="http://www.w3.org/2000/svg" xmlns:xlink="http://www.w3.org/1999/xlink" x="0px" y="0px"
	 viewBox="0 0 277.8 34" style="enable-background:new 0 0 277.8 34;" xml:space="preserve">
<style type="text/css">
	.st0{fill:#591115;}
	.st1{fill:#FFFFFF;}
</style>
<g>
	<g>
		<path class="st0" d="M68.9,21.6c-0.2,0.4-0.5,0.7-0.8,1c-0.3,0.3-0.6,0.5-1,0.7c-0.4,0.2-0.7,0.4-1.2,0.5
			c-0.4,0.1-0.8,0.2-1.3,0.2c-0.7,0-1.3-0.1-1.9-0.4c-0.6-0.3-1.1-0.6-1.6-1.1c-0.4-0.5-0.8-1-1.1-1.6c-0.3-0.6-0.4-1.2-0.4-1.9
			c0-0.7,0.1-1.3,0.4-1.9c0.3-0.6,0.6-1.1,1.1-1.6c0.4-0.5,1-0.8,1.6-1.1c0.6-0.3,1.2-0.4,1.9-0.4c0.4,0,0.9,0.1,1.3,0.2
			c0.4,0.1,0.8,0.3,1.2,0.5c0.4,0.2,0.7,0.5,1,0.7c0.3,0.3,0.6,0.6,0.8,1l-1.5,1.5c-0.1-0.3-0.2-0.5-0.4-0.7
			c-0.2-0.2-0.4-0.4-0.6-0.6c-0.2-0.2-0.5-0.3-0.8-0.4c-0.3-0.1-0.6-0.1-0.9-0.1c-0.4,0-0.8,0.1-1.1,0.2c-0.4,0.2-0.7,0.4-0.9,0.6
			c-0.3,0.3-0.5,0.6-0.6,0.9c-0.2,0.4-0.2,0.7-0.2,1.1c0,0.4,0.1,0.8,0.2,1.1c0.2,0.4,0.4,0.7,0.6,0.9c0.3,0.3,0.6,0.5,0.9,0.6
			c0.4,0.2,0.7,0.2,1.1,0.2c0.3,0,0.6,0,0.9-0.1c0.3-0.1,0.5-0.2,0.8-0.4c0.2-0.2,0.4-0.4,0.6-0.6c0.2-0.2,0.3-0.5,0.4-0.7
			L68.9,21.6z"/>
		<path class="st0" d="M80.8,14v5.4c0,0.3,0,0.6-0.1,0.9c-0.1,0.3-0.1,0.6-0.3,1c-0.1,0.3-0.3,0.7-0.5,1c-0.2,0.3-0.5,0.6-0.8,0.9
			c-0.3,0.2-0.6,0.4-1,0.6c-0.4,0.1-0.9,0.2-1.4,0.2h0c-0.5,0-1-0.1-1.5-0.3c-0.5-0.2-0.9-0.4-1.2-0.8c-0.3-0.3-0.6-0.7-0.8-1
			c-0.2-0.4-0.3-0.7-0.4-1.1c-0.1-0.3-0.1-0.6-0.1-0.9c0-0.2,0-0.4,0-0.5V14h2.1v5.4c0,0.1,0,0.2,0,0.3c0,0.1,0,0.3,0.1,0.5
			c0,0.2,0.1,0.4,0.2,0.6c0.1,0.2,0.2,0.4,0.3,0.5c0.1,0.2,0.3,0.3,0.5,0.4c0.2,0.1,0.5,0.1,0.8,0.1c0.5,0,0.8-0.1,1.1-0.3
			c0.3-0.2,0.5-0.5,0.6-0.7c0.1-0.3,0.2-0.6,0.2-0.8c0-0.3,0-0.5,0-0.6V14H80.8z"/>
		<path class="st0" d="M94.6,21.6c-0.2,0.4-0.5,0.7-0.8,1c-0.3,0.3-0.6,0.5-1,0.7c-0.4,0.2-0.7,0.4-1.2,0.5
			c-0.4,0.1-0.8,0.2-1.3,0.2c-0.7,0-1.3-0.1-1.9-0.4c-0.6-0.3-1.1-0.6-1.6-1.1c-0.4-0.5-0.8-1-1.1-1.6c-0.3-0.6-0.4-1.2-0.4-1.9
			c0-0.7,0.1-1.3,0.4-1.9c0.3-0.6,0.6-1.1,1.1-1.6c0.4-0.5,1-0.8,1.6-1.1c0.6-0.3,1.2-0.4,1.9-0.4c0.4,0,0.9,0.1,1.3,0.2
			c0.4,0.1,0.8,0.3,1.2,0.5c0.4,0.2,0.7,0.5,1,0.7c0.3,0.3,0.6,0.6,0.8,1l-1.5,1.5c-0.1-0.3-0.2-0.5-0.4-0.7
			c-0.2-0.2-0.4-0.4-0.6-0.6c-0.2-0.2-0.5-0.3-0.8-0.4c-0.3-0.1-0.6-0.1-0.9-0.1c-0.4,0-0.8,0.1-1.1,0.2c-0.4,0.2-0.7,0.4-0.9,0.6
			c-0.3,0.3-0.5,0.6-0.6,0.9c-0.2,0.4-0.2,0.7-0.2,1.1c0,0.4,0.1,0.8,0.2,1.1c0.2,0.4,0.4,0.7,0.6,0.9c0.3,0.3,0.6,0.5,0.9,0.6
			c0.4,0.2,0.7,0.2,1.1,0.2c0.3,0,0.6,0,0.9-0.1c0.3-0.1,0.5-0.2,0.8-0.4c0.2-0.2,0.4-0.4,0.6-0.6c0.2-0.2,0.3-0.5,0.4-0.7
			L94.6,21.6z"/>
		<path class="st0" d="M101.2,14.1V24h-2.1v-9.9H101.2z"/>
		<path class="st0" d="M113.3,14h2.1V24h-2.3l-4.3-6.4V24h-2.1V14h2.3l4.3,6.4V14z"/>
		<path class="st0" d="M127.4,24l-0.5-1.5h-4l-0.5,1.5h-2.2l3.5-9.9h2.4l3.5,9.9H127.4z M123.7,20.5h2.5l-1.3-3.6L123.7,20.5z"/>
		<path class="st0" d="M151.2,24l-0.5-1.5h-4l-0.5,1.5h-2.2l3.5-9.9h2.4l3.5,9.9H151.2z M147.4,20.5h2.5l-1.3-3.6L147.4,20.5z"/>
		<path class="st0" d="M165.8,20.4c0.3,0.2,0.5,0.5,0.7,0.8c0.2,0.3,0.3,0.6,0.5,0.9c0.1,0.3,0.2,0.6,0.3,0.9
			c0.1,0.3,0.1,0.6,0.1,0.9h-1h-1c0-0.1,0-0.2,0-0.3c0-0.1,0-0.3-0.1-0.5c0-0.2-0.1-0.4-0.2-0.6c-0.1-0.2-0.2-0.4-0.4-0.5
			c-0.2-0.2-0.4-0.3-0.6-0.4c-0.2-0.1-0.5-0.1-0.9-0.1h-2.4V24h-2V14h4.5c0,0,0.1,0,0.3,0c0.2,0,0.4,0.1,0.6,0.1
			c0.2,0.1,0.5,0.2,0.8,0.3c0.3,0.1,0.5,0.3,0.8,0.6c0.7,0.7,1.1,1.8,1.1,3.1c0,0.5-0.1,1-0.2,1.3C166.3,19.8,166,20.2,165.8,20.4z
			 M163.1,19.5c0.1,0,0.2,0,0.4,0c0.2,0,0.3-0.1,0.5-0.2c0.2-0.1,0.3-0.2,0.4-0.4c0.1-0.2,0.2-0.4,0.2-0.7c0-0.5-0.1-0.8-0.2-1.1
			c-0.1-0.3-0.3-0.5-0.4-0.6c-0.2-0.1-0.3-0.2-0.5-0.3c-0.2,0-0.3-0.1-0.4-0.1h-2.4v3.4H163.1z"/>
		<path class="st0" d="M178.8,16.1h-2.3V24h-2.1v-7.9h-2.3V14h6.7V16.1z"/>
		<path class="st0" d="M186.4,14.1V24h-2.1v-9.9H186.4z"/>
		<path class="st0" d="M196.8,18.5h4.3v2.9c-0.2,0.4-0.5,0.7-0.8,1c-0.3,0.3-0.6,0.6-1,0.8c-0.4,0.2-0.8,0.4-1.2,0.5
			c-0.4,0.1-0.9,0.2-1.3,0.2c-0.7,0-1.3-0.1-1.9-0.4c-0.6-0.3-1.1-0.6-1.6-1.1c-0.4-0.4-0.8-1-1.1-1.6c-0.3-0.6-0.4-1.2-0.4-1.9
			c0-0.7,0.1-1.3,0.4-1.9c0.3-0.6,0.6-1.1,1.1-1.6c0.4-0.4,1-0.8,1.6-1.1c0.6-0.3,1.2-0.4,1.9-0.4c0.9,0,1.7,0.2,2.4,0.6
			c0.7,0.4,1.3,1,1.7,1.6l-1.5,1.5c-0.2-0.5-0.6-0.9-1.1-1.2c-0.5-0.3-1-0.5-1.6-0.5c-0.4,0-0.8,0.1-1.1,0.2
			c-0.4,0.2-0.7,0.4-0.9,0.6c-0.3,0.3-0.5,0.6-0.6,0.9c-0.2,0.4-0.2,0.7-0.2,1.1c0,0.4,0.1,0.8,0.2,1.1c0.2,0.4,0.4,0.7,0.6,0.9
			c0.3,0.3,0.6,0.5,0.9,0.6c0.4,0.2,0.7,0.2,1.1,0.2c0.2,0,0.4,0,0.7-0.1c0.2-0.1,0.5-0.2,0.7-0.3c0.2-0.1,0.4-0.3,0.6-0.4
			c0.2-0.2,0.4-0.4,0.5-0.6h-2.5V18.5z"/>
		<path class="st0" d="M208.5,14.1V24h-2.1v-9.9H208.5z"/>
		<path class="st0" d="M220.8,24l-0.5-1.5h-4l-0.5,1.5h-2.2l3.5-9.9h2.4L223,24H220.8z M217,20.5h2.5l-1.3-3.6L217,20.5z"/>
		<path class="st0" d="M234.8,14h2.1V24h-2.3l-4.3-6.4V24h-2.1V14h2.3l4.3,6.4V14z"/>
		<path class="st0" d="M249.3,24l-0.5-1.5h-4l-0.5,1.5H242l3.5-9.9h2.4l3.5,9.9H249.3z M245.5,20.5h2.5l-1.3-3.6L245.5,20.5z"/>
		<path class="st0" d="M256.3,24V14h2.1v7.8h4.7V24H256.3z"/>
		<path class="st0" d="M271,16.1v2h4.5v2.1H271v1.7h4.6v2.1H269V14h6.7v2.1H271z"/>
	</g>
	<g>
		<g>
			<path class="st1" d="M13.8,17.3c-0.6,2.5-1.3,5.2-1.9,7.8c0,0.1-0.1,0.2-0.2,0.2c0,0,0,0-0.1,0c-0.1,0-0.2,0-0.2-0.1
				c-0.2-0.2-0.3-0.4-0.4-0.7c-0.3-1.1-0.6-2.2-0.8-3.4c-0.7-2.8-1.4-5.6-2-8.4c-0.2-1-0.5-2-0.8-3C6.9,7.6,6.2,5.3,6.1,2.9h-4
				c0.1,0.2,0.2,0.5,0.3,0.7C2.7,4.4,3,5.2,3.3,6C5.1,13,7,20.1,8.9,27.9c0.2,0.8,0.3,1.5,0.4,2.3c0,0.3,0.1,0.6,0.1,0.9h4.1
				c0-0.2,0-0.4,0-0.6c0-0.6,0.1-1.2,0.2-1.8c0.9-3.2,1.7-6.4,2.5-9.6c1.3-5.4,2.7-10.9,4.4-16.2h-3.6C16.2,7.8,15,12.6,13.8,17.3z"
				/>
			<path class="st1" d="M27.7,6.2c0.1,0,0.1-0.1,0.2-0.1c0,0,0,0,0,0c0.4,0,0.9,0,1.5,0c0.5,0,1,0,1.4,0c0.5,0,1,0,1.4,0
				c1,0,2.2,0,3.5,0.3l-0.6-3.5h-11c0,0.4,0.1,0.7,0.1,1.1c0.1,1,0.1,1.9,0.1,2.8c0,7,0,14.2,0,21.3c0,0.8-0.1,1.5-0.2,2.3
				c0,0.2-0.1,0.5-0.1,0.7h3.8c-0.4-1.9-0.4-3.7-0.3-5.5c0-1.1,0-2.1,0-3.2c0-0.1,0-0.2,0.1-0.2c0.1-0.1,0.1-0.1,0.2-0.1H34v-3.6
				h-6.1c-0.2,0-0.3-0.1-0.3-0.3V6.4C27.6,6.3,27.7,6.2,27.7,6.2z"/>
		</g>
	</g>
</g>
</svg>
