<?xml version="1.0" encoding="utf-8"?>
<!-- Generator: Adobe Illustrator 21.0.0, SVG Export Plug-In . SVG Version: 6.00 Build 0)  -->
<svg version="1.1" id="Capa_1" xmlns="http://www.w3.org/2000/svg" xmlns:xlink="http://www.w3.org/1999/xlink" x="0px" y="0px"
	 viewBox="0 0 81 94.9" style="enable-background:new 0 0 81 94.9;" xml:space="preserve">
<style type="text/css">
	.st0{fill:#00ACCD;}
	.st1{fill:#FFFFFF;}
</style>
<g>
	<path class="st0" d="M65.4,19.8c-0.7-2.5-1.7-4.7-2.3-5.7c-0.1-0.2-1.5-3-3.5-5.1C58,7.3,56,5.7,54.9,4.9C54.6,4.7,52.4,3,49.8,2
		c-2.1-0.8-4.4-1.3-5.7-1.6c-0.3-0.1-3.7-0.6-6.7-0.3c-2.4,0.2-4.7,0.9-6,1.3c-0.3,0.1-3.2,1-5.7,2.6C23.8,5.2,22,6.8,21,7.7
		c-0.3,0.3-3,2.9-4.8,6.4c-0.9,1.8-1.6,3.9-2.1,5.4c-0.2,0.6-1.1,4.1-1,7.5c0.1,2.5,0.6,4.9,1,6.4c0.1,0.4,1,3.7,2.8,6.8
		c1.1,1.8,2.6,3.6,3.5,4.6c0.3,0.3,1.9,2,3.8,3.3c1.3,0.9,2.8,1.7,3.8,2.2c0.3,0.2,1.6,0.8,2.9,1.2c0.8,0.3,1.6,0.5,2.2,0.7
		c0.2,0.1,2.5,0.8,3.6,0.3c1.3-0.6,1.4-2.4,1.4-2.4l0.1-4.4c0,0,0.3-1.2,0.7-1.5c0.6-0.6,2.4-2.1,3.3-2.8c0.1-0.1,1.5-1.2,2.8-2.3
		c0.7-0.5,1.3-1.1,1.7-1.4c0.2-0.1,1.1-0.8,1.6-1.7c0.6-1.2,0.9-2.7,0.9-2.7l-0.7-14L47.7,8.2h-2.4c0,0-0.8,0.4-1,0.7
		c-0.4,0.4-0.5,0.9-0.5,0.9l-0.1,4.9l0.1,10.5c0,0,0.1,0.9-0.8,0.9c-0.8,0-0.8-0.8-0.8-0.8V14.6V9.7c0,0-0.3-1.6-2.2-1.6
		s-2.2,1.6-2.2,1.6v4.9v10.6c0,0-0.1,0.8-0.8,0.8c-0.7,0-0.7-0.8-0.7-0.8V14.6V9.8c0,0-0.6-1.6-1.8-1.6c-1.2,0-2.2,0-2.2,0L32,14.6
		l-0.4,6.8l-0.2,3.9l-0.2,4.5l-0.1,3.5c0,0,0.3,2.7,2.3,4.4s5.4,4.5,5.4,4.5s-1.6,1.3-1.8,2.9c-0.2,1.6-0.2,5.1-0.2,5.1
		s0.2,1.2-1.5,0.8c-0.8-0.2-3.7-0.8-6.6-2.4c-1.5-0.8-6.5-3.9-9.4-8.4c-1.4-2.2-4.1-7.1-4.2-12.2c0-2.7,0.3-9,3-13.4
		c1.6-2.6,5-7.8,9.9-10c1.5-0.7,5.9-3.2,11.1-3.2c2.7,0,7.6,0.2,11.9,2.5c2,1.1,5.8,3.3,8.2,6.4c1.5,2,3.9,5,4.9,9
		c0.5,2,1.4,6,1,9.3c-0.3,2.4-0.7,4.2-1.1,5.5c-0.2,0.6-1.4,4.3-3.5,7c-1.8,2.3-3.3,3.7-4.1,4.4c-0.2,0.2-2.4,1.9-4.7,3.1
		c-1.5,0.8-3.1,1.3-3.9,1.6c-0.2,0-1.3,0.4-2.3,0.6c-0.2,0-1,0.3-1.5,0.1c-0.3-0.1-0.4-0.7-0.4-0.8c-0.1-0.6-0.2-1.3-0.2-2.1
		c0-0.4,0-2.2-0.1-3.1c-0.2-1.2-0.7-1.6-0.7-1.6l-1.2,0.9c0,0,0.3,0.4,0.3,0.5s0,0.4,0,0.4s0.1,5.1,0.3,5.8c0.1,0.4,0.5,0.8,0.6,0.9
		c0.5,0.5,1.2,0.9,2.2,0.7c0.9-0.2,3.8-1,6.2-2c1.7-0.8,3.2-1.7,4.1-2.3c0.2-0.2,1.5-1,2.5-2c0.9-0.8,1.7-1.7,2.2-2.3
		c0.1-0.2,1.8-2,3.1-4.1c1-1.8,1.7-3.4,2.1-4.4c0.1-0.2,0.8-2.1,1.1-4.2c0.3-1.8,0.4-3.9,0.5-4.7C66.2,26.5,66.2,22.8,65.4,19.8z
		 M34.9,37.3c-3-2.4-2.7-5-2.7-5l0.3-7.1l0.8-15.6c1.1,0,1.2,0.6,1.2,0.6v15c0,0,0,2.4,2.2,2.4c2.2,0,2.3-2.4,2.3-2.4v-15
		c0,0,0.3-0.6,0.8-0.6s0.7,0.6,0.7,0.6v15c0,0,0.4,2.4,2.3,2.4c1.9,0,2.2-2.4,2.2-2.4s-0.1-14.4-0.1-15S46,9.6,46,9.6
		s1.1,19.6,1.3,22.7c0.2,3.1-2.9,5-2.9,5l-4.8,3.9C39.7,41.2,37.9,39.6,34.9,37.3z"/>
	<polygon class="st0" points="11,83.4 1.1,83.4 1.1,94.8 11.6,94.8 11.6,93.4 2.7,93.4 2.7,89.3 10,89.3 10,88.1 2.7,88.1 2.7,84.8 
		11,84.8 	"/>
	<path class="st0" d="M30,83.4h-1.8l-6.4,11.4h1.7l1.4-3h8.2l1.5,3h1.7L30,83.4z M25.6,90.7l3.5-6.2l3.5,6.2H25.6z"/>
	<polygon class="st0" points="45.7,83.4 45.7,84.8 50.8,84.8 50.8,94.9 52.3,94.9 52.3,84.8 57.3,84.8 57.3,83.4 	"/>
	<path class="st0" d="M69.6,92.5l-0.3,1.4c0,0,2.1,0.8,2.8,0.9c0.4,0.1,1.8,0.2,3.1,0.1c1.1-0.1,1.9-0.5,2.3-0.8
		c0.3-0.2,1-0.8,1.4-1.5c0.3-0.6,0.4-1.4,0.3-1.8c-0.1-0.3-0.2-0.5-0.3-0.7c-0.1-0.1-0.3-0.4-0.7-0.7c-0.2-0.2-1-0.5-2-0.8
		c-1.4-0.4-3.2-0.6-3.5-0.7c-0.8-0.2-1.2-0.5-1.4-0.7c0,0-0.5-0.5-0.4-1c0.1-0.4,0.5-0.7,0.7-1c0.1-0.1,0.7-0.6,2-0.7
		s3.3,0.3,3.3,0.3l1.7,0.4v-1.3c0,0-1.3-0.4-2.6-0.5c-1.5-0.2-3-0.1-3.4,0c-0.5,0.1-0.9,0.2-1.3,0.4c-0.2,0.1-0.9,0.6-1.3,1.1
		c-0.2,0.3-0.6,0.8-0.6,1.4c0,0.7,0.5,1.4,0.6,1.6c0.1,0.1,0.5,0.6,1.4,0.9s2.2,0.6,2.8,0.7c0.1,0,1.4,0.2,2.3,0.5
		c0.6,0.2,0.9,0.5,1.1,0.7c0,0.1,0.4,0.6,0.2,1.1s-1.1,1.1-1.2,1.2s-1,0.4-2,0.5c-0.9,0.1-2-0.1-2.7-0.3L69.6,92.5z"/>
	<path class="st1" d="M0,63.2v1.5c0,0,0.6,0,0.6,0.7s0,2.4,0,2.7c0,0.7,0,2,0,2s0,4.7,5.6,4.7s5.7-4,5.7-4.7s0-2,0-2v-4.9h-1.3v7
		c0,0,0.2,3.1-4.3,3.1S2,70.2,2,70.2v-5.5C2,64.7,1.9,63.2,0,63.2z"/>
	<path class="st1" d="M33.5,68.7c0,0,0.1-0.1,0.3-0.3c0.2-0.2,0.5-0.5,0.7-1c0.1-0.1,0.1-0.3,0.2-0.5c0.1-0.2,0.1-0.5,0.1-0.8
		c0-0.2,0-0.4-0.1-0.6c-0.1-0.3-0.2-0.5-0.3-0.7c-0.1-0.1-0.1-0.2-0.2-0.3c-0.2-0.2-0.4-0.4-0.5-0.6c-0.1-0.1-0.3-0.2-0.4-0.3
		c-0.2-0.1-0.3-0.2-0.5-0.2c-0.1,0-0.2-0.1-0.3-0.1c0,0-0.2,0-0.4,0c-1.7,0-8.6-0.1-8.6-0.1v11.1h8.6c0,0,0.4,0,0.5-0.1
		c0.4-0.1,1-0.3,1.5-0.9c0.5-0.5,0.9-1.2,0.9-2.2C34.9,69.6,33.5,68.7,33.5,68.7z M24.6,64.7c0,0,6.2,0,7.5,0.1c0.1,0,0.3,0,0.3,0
		c0.1,0.1,0.2,0.1,0.4,0.2l0.1,0.1c0.1,0.1,0.3,0.2,0.4,0.4c0.1,0.2,0.2,0.5,0.2,0.8c0,0.1,0,0.2,0,0.3c0,0.2-0.1,0.3-0.2,0.5
		c-0.1,0.1-0.2,0.3-0.3,0.4s-0.2,0.2-0.3,0.2c0,0-0.1,0.1-0.2,0.1c-0.1,0.1-0.2,0.1-0.2,0.2c-0.1,0-0.4,0.1-0.5,0.1
		c-1.7,0-7.2,0-7.2,0V64.7z M31.9,73.3h-7.3v-3.1c0-0.6,0.5-0.8,0.5-0.8h6.7c0,0,0.1,0,0.2,0c0.1,0,0.4,0.1,0.4,0.1
		c0.1,0.1,0.3,0.2,0.5,0.3c0.1,0.1,0.3,0.3,0.4,0.4c0.2,0.3,0.4,0.6,0.4,1c0,0.2,0,0.4-0.1,0.6s-0.2,0.4-0.4,0.6
		c-0.3,0.3-0.6,0.6-0.8,0.7C32.3,73.2,31.9,73.3,31.9,73.3z"/>
	<path class="st1" d="M56.4,63.2H46.2v11.2h10.7v-1.1h-9.4v-3.2c0,0,0.1-0.8,0.6-0.8s5.7,0,5.7,0v-1.2h-6.2v-3.5h8.9L56.4,63.2z"/>
	<path class="st1" d="M80,73.3c0,0-0.3,0.4-0.7,0c-0.4-0.4-2.5-3.2-2.5-3.2s3.4-0.3,3.4-3.3c0-3-3.4-3.6-3.4-3.6h-8.4v11.1h1.3v-3.6
		c0,0,0.1-0.6,0.7-0.6c0.7,0,4.7,0,4.7,0l3.2,3.8c0,0,0.5,0.5,0.6,0.6c0.4,0.2,1.3,0.5,2.1-0.3L80,73.3z M69.7,69v-4.3h7.1
		c0,0,2.2,0.4,2.2,2s-2.2,2.2-2.2,2.2h-7.1V69z"/>
</g>
</svg>
