<svg xmlns="http://www.w3.org/2000/svg" width="40" viewBox="0 0 12 16.67"><defs><style>.a{fill:#e9434b;}.b{fill:#fff;}</style></defs><title>marker</title><path class="a" d="M12,6A6,6,0,0,0,0,6C0,9.33,6,16.67,6,16.67S12,9.42,12,6Z"/><path class="b" d="M4.92,8.42c-.17.67-.33,1.42-.5,2.08a.08.08,0,0,1-.08.08H4.25c-.08-.08-.08-.08-.08-.17-.08-.33-.17-.58-.25-.92C3.75,8.75,3.5,8,3.33,7.25a2.47,2.47,0,0,0-.17-.83c-.08-.58-.25-1.25-.33-1.83H1.75c.08.08.08.08.08.17.08.25.17.42.25.67.5,1.83,1,3.75,1.5,5.83a1.42,1.42,0,0,1,.08.58v.25H4.75v-.17a1.06,1.06,0,0,1,.08-.5c.25-.83.42-1.75.67-2.58C5.92,7.5,6.25,6,6.75,4.58h-1C5.5,5.92,5.25,7.17,4.92,8.42Z"/><path class="b" d="M8.08,5.42H9.33a3.74,3.74,0,0,1,.92.08l-.17-.92h-3v6.67a1.42,1.42,0,0,1-.08.58V12H8a9.06,9.06,0,0,1-.08-1.5V9.58H9.67V8.67H8.08C8,8.67,8,8.67,8,8.58l.08-3.17Z"/></svg>
