<?xml version="1.0" encoding="utf-8"?>
<!-- Generator: Adobe Illustrator 19.2.0, SVG Export Plug-In . SVG Version: 6.00 Build 0)  -->
<svg version="1.1" id="Capa_1" xmlns="http://www.w3.org/2000/svg" xmlns:xlink="http://www.w3.org/1999/xlink" x="0px" y="0px"
	 viewBox="0 0 16 22" style="enable-background:new 0 0 16 22;" xml:space="preserve">
<style type="text/css">
	.st0{fill:#E9434B;}
	.st1{fill:#FFFFFF;}
</style>
<g>
	<path class="st0" d="M15.2,8.2C15.2,4.2,12,1,8,1S0.8,4.2,0.8,8.2S8,21,8,21S15.2,12.3,15.2,8.2z"/>
	<g>
		<g>
			<path class="st1" d="M6.7,11.1c-0.2,0.8-0.4,1.7-0.6,2.5c0,0,0,0.1-0.1,0.1c0,0,0,0,0,0c0,0-0.1,0-0.1,0
				c-0.1-0.1-0.1-0.1-0.1-0.2c-0.1-0.4-0.2-0.7-0.3-1.1c-0.2-0.9-0.5-1.8-0.7-2.7C4.8,9.3,4.7,9,4.6,8.7C4.5,8,4.3,7.2,4.2,6.5H2.9
				C3,6.6,3,6.6,3,6.7C3.1,7,3.2,7.2,3.3,7.5c0.6,2.2,1.2,4.5,1.8,7c0.1,0.2,0.1,0.5,0.1,0.7c0,0.1,0,0.2,0,0.3h1.3
				c0-0.1,0-0.1,0-0.2c0-0.2,0-0.4,0.1-0.6c0.3-1,0.5-2.1,0.8-3.1C7.9,10,8.3,8.2,8.9,6.5H7.7C7.4,8.1,7.1,9.6,6.7,11.1z"/>
			<path class="st1" d="M10.5,7.5C10.5,7.5,10.5,7.5,10.5,7.5C10.6,7.5,10.6,7.5,10.5,7.5c0.2,0,0.4,0,0.5,0c0.2,0,0.3,0,0.5,0
				c0.1,0,0.3,0,0.5,0c0.3,0,0.7,0,1.1,0.1l-0.2-1.1H9.3c0,0.1,0,0.2,0,0.3c0,0.3,0,0.6,0,0.9c0,2.3,0,4.6,0,6.8
				c0,0.2,0,0.5-0.1,0.7c0,0.1,0,0.2,0,0.2h1.2c-0.1-0.6-0.1-1.2-0.1-1.8c0-0.3,0-0.7,0-1c0,0,0-0.1,0-0.1c0,0,0,0,0.1,0h2v-1.1
				h-1.9c-0.1,0-0.1,0-0.1-0.1L10.5,7.5C10.5,7.6,10.5,7.6,10.5,7.5z"/>
		</g>
	</g>
</g>
</svg>
