<svg xmlns="http://www.w3.org/2000/svg" viewBox="0 0 805.78 123.96"><defs><style>.a{fill:none;stroke:#f33;stroke-linecap:round;stroke-miterlimit:10;}</style></defs><title>patternbottom</title><line class="a" x1="-887.99" y1="331.28" x2="21.07" y2="-577.79"/><line class="a" x1="-826.07" y1="331.28" x2="82.99" y2="-577.79"/><line class="a" x1="-764.15" y1="331.28" x2="144.91" y2="-577.79"/><line class="a" x1="-702.22" y1="331.28" x2="206.84" y2="-577.79"/><line class="a" x1="-640.3" y1="331.28" x2="268.76" y2="-577.79"/><line class="a" x1="-578.38" y1="331.28" x2="330.68" y2="-577.79"/><line class="a" x1="-516.45" y1="331.28" x2="392.61" y2="-577.79"/><line class="a" x1="-454.53" y1="331.28" x2="454.53" y2="-577.79"/><line class="a" x1="-392.61" y1="331.28" x2="516.45" y2="-577.79"/><line class="a" x1="-330.68" y1="331.28" x2="578.38" y2="-577.79"/><line class="a" x1="-268.76" y1="331.28" x2="640.3" y2="-577.79"/><line class="a" x1="-206.84" y1="331.28" x2="702.22" y2="-577.79"/><line class="a" x1="-144.91" y1="331.28" x2="764.15" y2="-577.79"/><line class="a" x1="-82.99" y1="331.28" x2="826.07" y2="-577.79"/><line class="a" x1="-21.07" y1="331.28" x2="887.99" y2="-577.79"/><line class="a" x1="40.86" y1="331.28" x2="949.92" y2="-577.79"/><line class="a" x1="102.78" y1="331.28" x2="1011.84" y2="-577.79"/><line class="a" x1="208.01" y1="287.97" x2="1073.76" y2="-577.79"/><line class="a" x1="287.19" y1="270.71" x2="1135.69" y2="-577.79"/><line class="a" x1="331.85" y1="287.97" x2="1197.61" y2="-577.79"/><line class="a" x1="373.12" y1="308.63" x2="1259.53" y2="-577.79"/><line class="a" x1="426.49" y1="317.18" x2="1321.46" y2="-577.79"/><line class="a" x1="474.32" y1="331.28" x2="1383.38" y2="-577.79"/><line class="a" x1="536.24" y1="331.28" x2="1445.3" y2="-577.79"/><line class="a" x1="598.17" y1="331.28" x2="1507.23" y2="-577.79"/><line class="a" x1="660.09" y1="331.28" x2="1569.15" y2="-577.79"/><line class="a" x1="722.01" y1="331.28" x2="1631.07" y2="-577.79"/><line class="a" x1="783.93" y1="331.28" x2="1693" y2="-577.79"/><line class="a" x1="1693" y1="331.28" x2="783.93" y2="-577.79"/><line class="a" x1="1631.07" y1="331.28" x2="722.01" y2="-577.79"/><line class="a" x1="1569.15" y1="331.28" x2="660.09" y2="-577.79"/><line class="a" x1="1507.23" y1="331.28" x2="598.17" y2="-577.79"/><line class="a" x1="1445.3" y1="331.28" x2="536.24" y2="-577.79"/><line class="a" x1="1383.38" y1="331.28" x2="474.32" y2="-577.79"/><line class="a" x1="1321.46" y1="331.28" x2="412.4" y2="-577.79"/><line class="a" x1="1259.53" y1="331.28" x2="350.47" y2="-577.79"/><line class="a" x1="1197.61" y1="331.28" x2="288.55" y2="-577.79"/><line class="a" x1="1135.69" y1="331.28" x2="226.63" y2="-577.79"/><line class="a" x1="1073.76" y1="331.28" x2="164.7" y2="-577.79"/><line class="a" x1="1011.84" y1="331.28" x2="102.78" y2="-577.79"/><line class="a" x1="949.92" y1="331.28" x2="40.86" y2="-577.79"/><line class="a" x1="887.99" y1="331.28" x2="-21.07" y2="-577.79"/><line class="a" x1="826.07" y1="331.28" x2="-82.99" y2="-577.79"/><line class="a" x1="764.15" y1="331.28" x2="-144.91" y2="-577.79"/><line class="a" x1="702.22" y1="331.28" x2="-206.84" y2="-577.79"/><line class="a" x1="640.3" y1="331.28" x2="-268.76" y2="-577.79"/><line class="a" x1="578.38" y1="331.28" x2="-330.68" y2="-577.79"/><line class="a" x1="516.45" y1="331.28" x2="-392.61" y2="-577.79"/><line class="a" x1="454.53" y1="331.28" x2="-454.53" y2="-577.79"/><line class="a" x1="349.3" y1="287.97" x2="-516.45" y2="-577.79"/><line class="a" x1="270.07" y1="270.66" x2="-550.48" y2="-549.89"/><line class="a" x1="223.67" y1="286.19" x2="-640.3" y2="-577.79"/><line class="a" x1="184.88" y1="309.32" x2="-702.22" y2="-577.79"/><line class="a" x1="131.11" y1="317.47" x2="-764.15" y2="-577.79"/><line class="a" x1="82.99" y1="331.28" x2="-826.07" y2="-577.79"/><line class="a" x1="21.07" y1="331.28" x2="-887.99" y2="-577.79"/></svg>