<?xml version="1.0" encoding="utf-8"?>
<!-- Generator: Adobe Illustrator 21.0.0, SVG Export Plug-In . SVG Version: 6.00 Build 0)  -->
<svg version="1.1" id="Layer_1" xmlns="http://www.w3.org/2000/svg" xmlns:xlink="http://www.w3.org/1999/xlink" x="0px" y="0px"
	 viewBox="0 0 29 40" style="enable-background:new 0 0 29 40;" xml:space="preserve">
<style type="text/css">
	.st0{fill:#FF3D46;}
	.st1{fill:#FFFFFF;}
</style>
<path class="st0" d="M29,14.5C29,6.5,22.5,0,14.5,0S0,6.5,0,14.5S14.5,40,14.5,40S29,22.5,29,14.5z"/>
<g>
	<g>
		<path class="st1" d="M11.9,17c-0.4,1.6-0.8,3.3-1.2,5c0,0.1-0.1,0.1-0.1,0.1c0,0,0,0,0,0c-0.1,0-0.1,0-0.1-0.1
			c-0.1-0.1-0.2-0.3-0.2-0.4c-0.2-0.7-0.4-1.4-0.5-2.1c-0.4-1.8-0.9-3.6-1.3-5.4c-0.1-0.6-0.3-1.3-0.5-1.9C7.4,10.7,7,9.3,6.9,7.8
			H4.4c0.1,0.2,0.1,0.3,0.2,0.5c0.2,0.5,0.4,1,0.5,1.5c1.2,4.5,2.4,9,3.6,14c0.1,0.5,0.2,1,0.3,1.5c0,0.2,0.1,0.4,0.1,0.6h2.6
			c0-0.1,0-0.2,0-0.4c0-0.4,0-0.8,0.1-1.1c0.6-2,1.1-4.1,1.6-6.1c0.9-3.4,1.7-7,2.8-10.4H14C13.4,10.9,12.6,14,11.9,17z"/>
		<path class="st1" d="M19.5,9.9c0,0,0.1,0,0.1,0c0,0,0,0,0,0c0.3,0,0.6,0,0.9,0c0.3,0,0.6,0,0.9,0c0.3,0,0.6,0,0.9,0
			c0.7,0,1.4,0,2.2,0.2l-0.4-2.3h-7.1c0,0.2,0,0.5,0.1,0.7c0,0.6,0.1,1.2,0.1,1.8c0,4.5,0,9.1,0,13.7c0,0.5-0.1,1-0.1,1.5
			c0,0.2,0,0.3,0,0.5h2.4c-0.3-1.2-0.2-2.4-0.2-3.5c0-0.7,0-1.4,0-2c0-0.1,0-0.1,0-0.1c0,0,0.1-0.1,0.1-0.1h3.9v-2.3h-3.9
			c-0.1,0-0.2-0.1-0.2-0.2V10C19.4,10,19.4,9.9,19.5,9.9z"/>
	</g>
</g>
</svg>
