<?xml version="1.0" encoding="utf-8"?>
<!-- Generator: Adobe Illustrator 19.2.0, SVG Export Plug-In . SVG Version: 6.00 Build 0)  -->
<svg version="1.1" id="Capa_1" xmlns="http://www.w3.org/2000/svg" xmlns:xlink="http://www.w3.org/1999/xlink" x="0px" y="0px"
	 viewBox="0 0 198.4 141.7" style="enable-background:new 0 0 198.4 141.7;" xml:space="preserve">
<style type="text/css">
	.st0{fill:#E9434B;}
	.st1{fill:#FFFFFF;}
	.st2{fill:#C02E35;}
</style>
<g>
	<path class="st0" d="M16.8,30.2c7.9,0,14.3-6.4,14.3-14.3c0-7.9-6.4-14.3-14.3-14.3C8.9,1.5,2.5,7.9,2.5,15.9
		C2.5,23.8,8.9,30.2,16.8,30.2"/>
	<path class="st1" d="M24,12.1c-0.5,0.2-1.1,0.4-1.7,0.5c0.6-0.4,1.1-0.9,1.3-1.6c-0.6,0.3-1.2,0.6-1.9,0.7
		c-0.5-0.6-1.3-0.9-2.2-0.9c-1.6,0-2.9,1.3-2.9,2.9c0,0.2,0,0.5,0.1,0.7c-2.5-0.1-4.6-1.3-6.1-3.1c-0.3,0.4-0.4,0.9-0.4,1.5
		c0,1,0.5,1.9,1.3,2.5c-0.5,0-0.9-0.1-1.3-0.4v0c0,1.4,1,2.6,2.4,2.9c-0.2,0.1-0.5,0.1-0.8,0.1c-0.2,0-0.4,0-0.6-0.1
		c0.4,1.2,1.5,2,2.8,2c-1,0.8-2.3,1.3-3.7,1.3c-0.2,0-0.5,0-0.7,0c1.3,0.8,2.9,1.3,4.5,1.3c5.4,0,8.4-4.5,8.4-8.4c0-0.1,0-0.3,0-0.4
		C23.1,13.2,23.6,12.7,24,12.1"/>
	<path class="st0" d="M94.2,30.2c7.9,0,14.3-6.4,14.3-14.3c0-7.9-6.4-14.3-14.3-14.3c-7.9,0-14.3,6.4-14.3,14.3
		C79.9,23.8,86.3,30.2,94.2,30.2"/>
	<path class="st1" d="M90.8,13.4h1.5V12c0-0.6,0-1.6,0.5-2.2c0.5-0.6,1.2-1.1,2.3-1.1c1.9,0,2.7,0.3,2.7,0.3l-0.4,2.2
		c0,0-0.6-0.2-1.2-0.2c-0.6,0-1.1,0.2-1.1,0.8v1.7h2.4l-0.2,2.1H95V23h-2.8v-7.5h-1.5V13.4z"/>
	<path class="st0" d="M181.6,30.2c7.9,0,14.3-6.4,14.3-14.3c0-7.9-6.4-14.3-14.3-14.3c-7.9,0-14.3,6.4-14.3,14.3
		C167.3,23.8,173.7,30.2,181.6,30.2"/>
	<path id="XMLID_9_" class="st1" d="M184.5,8.8h-5.7c-2.3,0-4.2,1.9-4.2,4.2v5.7c0,2.3,1.9,4.2,4.2,4.2h5.7c2.3,0,4.2-1.9,4.2-4.2
		V13C188.7,10.7,186.8,8.8,184.5,8.8z M187.3,18.7c0,1.5-1.3,2.8-2.8,2.8h-5.7c-1.5,0-2.8-1.3-2.8-2.8V13c0-1.5,1.3-2.8,2.8-2.8h5.7
		c1.5,0,2.8,1.3,2.8,2.8V18.7L187.3,18.7z"/>
	<path id="XMLID_8_" class="st1" d="M181.6,12.2c-2,0-3.7,1.6-3.7,3.7s1.6,3.7,3.7,3.7s3.7-1.6,3.7-3.7S183.6,12.2,181.6,12.2z
		 M181.6,18.1c-1.2,0-2.2-1-2.2-2.2s1-2.2,2.2-2.2c1.2,0,2.2,1,2.2,2.2C183.9,17.1,182.9,18.1,181.6,18.1z"/>
	<circle id="XMLID_7_" class="st1" cx="185.3" cy="12.2" r="0.9"/>
	<path class="st1" d="M16.8,80.2c7.9,0,14.3-6.4,14.3-14.3c0-7.9-6.4-14.3-14.3-14.3c-7.9,0-14.3,6.4-14.3,14.3
		C2.5,73.8,8.9,80.2,16.8,80.2"/>
	<path class="st0" d="M24,62.1c-0.5,0.2-1.1,0.4-1.7,0.5c0.6-0.4,1.1-0.9,1.3-1.6c-0.6,0.3-1.2,0.6-1.9,0.7
		c-0.5-0.6-1.3-0.9-2.2-0.9c-1.6,0-2.9,1.3-2.9,2.9c0,0.2,0,0.5,0.1,0.7c-2.5-0.1-4.6-1.3-6.1-3.1c-0.3,0.4-0.4,0.9-0.4,1.5
		c0,1,0.5,1.9,1.3,2.5c-0.5,0-0.9-0.1-1.3-0.4v0c0,1.4,1,2.6,2.4,2.9c-0.2,0.1-0.5,0.1-0.8,0.1c-0.2,0-0.4,0-0.6-0.1
		c0.4,1.2,1.5,2,2.8,2c-1,0.8-2.3,1.3-3.7,1.3c-0.2,0-0.5,0-0.7,0c1.3,0.8,2.9,1.3,4.5,1.3c5.4,0,8.4-4.5,8.4-8.4c0-0.1,0-0.3,0-0.4
		C23.1,63.2,23.6,62.7,24,62.1"/>
	<path class="st1" d="M94.2,80.2c7.9,0,14.3-6.4,14.3-14.3c0-7.9-6.4-14.3-14.3-14.3c-7.9,0-14.3,6.4-14.3,14.3
		C79.9,73.8,86.3,80.2,94.2,80.2"/>
	<path class="st0" d="M90.8,63.4h1.5V62c0-0.6,0-1.6,0.5-2.2c0.5-0.6,1.2-1.1,2.3-1.1c1.9,0,2.7,0.3,2.7,0.3l-0.4,2.2
		c0,0-0.6-0.2-1.2-0.2c-0.6,0-1.1,0.2-1.1,0.8v1.7h2.4l-0.2,2.1H95V73h-2.8v-7.5h-1.5V63.4z"/>
	<path class="st1" d="M181.6,80.2c7.9,0,14.3-6.4,14.3-14.3c0-7.9-6.4-14.3-14.3-14.3c-7.9,0-14.3,6.4-14.3,14.3
		C167.3,73.8,173.7,80.2,181.6,80.2"/>
	<path id="XMLID_3_" class="st0" d="M184.5,58.8h-5.7c-2.3,0-4.2,1.9-4.2,4.2v5.7c0,2.3,1.9,4.2,4.2,4.2h5.7c2.3,0,4.2-1.9,4.2-4.2
		V63C188.7,60.7,186.8,58.8,184.5,58.8z M187.3,68.7c0,1.5-1.3,2.8-2.8,2.8h-5.7c-1.5,0-2.8-1.3-2.8-2.8V63c0-1.5,1.3-2.8,2.8-2.8
		h5.7c1.5,0,2.8,1.3,2.8,2.8V68.7L187.3,68.7z"/>
	<path id="XMLID_2_" class="st0" d="M181.6,62.2c-2,0-3.7,1.6-3.7,3.7s1.6,3.7,3.7,3.7s3.7-1.6,3.7-3.7
		C185.3,63.8,183.6,62.2,181.6,62.2z M181.6,68.1c-1.2,0-2.2-1-2.2-2.2c0-1.2,1-2.2,2.2-2.2c1.2,0,2.2,1,2.2,2.2
		C183.9,67.1,182.9,68.1,181.6,68.1z"/>
	<circle id="XMLID_1_" class="st0" cx="185.3" cy="62.2" r="0.9"/>
	<path class="st2" d="M16.8,140.2c7.9,0,14.3-6.4,14.3-14.3c0-7.9-6.4-14.3-14.3-14.3c-7.9,0-14.3,6.4-14.3,14.3
		C2.5,133.8,8.9,140.2,16.8,140.2"/>
	<path class="st1" d="M24,122.1c-0.5,0.2-1.1,0.4-1.7,0.5c0.6-0.4,1.1-0.9,1.3-1.6c-0.6,0.3-1.2,0.6-1.9,0.7
		c-0.5-0.6-1.3-0.9-2.2-0.9c-1.6,0-2.9,1.3-2.9,2.9c0,0.2,0,0.5,0.1,0.7c-2.5-0.1-4.6-1.3-6.1-3.1c-0.3,0.4-0.4,0.9-0.4,1.5
		c0,1,0.5,1.9,1.3,2.5c-0.5,0-0.9-0.1-1.3-0.4v0c0,1.4,1,2.6,2.4,2.9c-0.2,0.1-0.5,0.1-0.8,0.1c-0.2,0-0.4,0-0.6-0.1
		c0.4,1.2,1.5,2,2.8,2c-1,0.8-2.3,1.3-3.7,1.3c-0.2,0-0.5,0-0.7,0c1.3,0.8,2.9,1.3,4.5,1.3c5.4,0,8.4-4.5,8.4-8.4c0-0.1,0-0.3,0-0.4
		C23.1,123.2,23.6,122.7,24,122.1"/>
	<path class="st2" d="M94.2,140.2c7.9,0,14.3-6.4,14.3-14.3c0-7.9-6.4-14.3-14.3-14.3c-7.9,0-14.3,6.4-14.3,14.3
		C79.9,133.8,86.3,140.2,94.2,140.2"/>
	<path class="st1" d="M90.8,123.4h1.5V122c0-0.6,0-1.6,0.5-2.2c0.5-0.6,1.2-1.1,2.3-1.1c1.9,0,2.7,0.3,2.7,0.3l-0.4,2.2
		c0,0-0.6-0.2-1.2-0.2c-0.6,0-1.1,0.2-1.1,0.8v1.7h2.4l-0.2,2.1H95v7.5h-2.8v-7.5h-1.5V123.4z"/>
	<path class="st2" d="M181.6,140.2c7.9,0,14.3-6.4,14.3-14.3c0-7.9-6.4-14.3-14.3-14.3c-7.9,0-14.3,6.4-14.3,14.3
		C167.3,133.8,173.7,140.2,181.6,140.2"/>
	<path id="XMLID_14_" class="st1" d="M184.5,118.8h-5.7c-2.3,0-4.2,1.9-4.2,4.2v5.7c0,2.3,1.9,4.2,4.2,4.2h5.7
		c2.3,0,4.2-1.9,4.2-4.2V123C188.7,120.7,186.8,118.8,184.5,118.8z M187.3,128.7c0,1.5-1.3,2.8-2.8,2.8h-5.7c-1.5,0-2.8-1.3-2.8-2.8
		V123c0-1.5,1.3-2.8,2.8-2.8h5.7c1.5,0,2.8,1.3,2.8,2.8V128.7L187.3,128.7z"/>
	<path id="XMLID_12_" class="st1" d="M181.6,122.2c-2,0-3.7,1.6-3.7,3.7s1.6,3.7,3.7,3.7s3.7-1.6,3.7-3.7
		C185.3,123.8,183.6,122.2,181.6,122.2z M181.6,128.1c-1.2,0-2.2-1-2.2-2.2c0-1.2,1-2.2,2.2-2.2c1.2,0,2.2,1,2.2,2.2
		C183.9,127.1,182.9,128.1,181.6,128.1z"/>
	<circle id="XMLID_4_" class="st1" cx="185.3" cy="122.2" r="0.9"/>
</g>
</svg>
