<?xml version="1.0" encoding="utf-8"?>
<!-- Generator: Adobe Illustrator 21.0.0, SVG Export Plug-In . SVG Version: 6.00 Build 0)  -->
<svg version="1.1" id="Capa_1" xmlns="http://www.w3.org/2000/svg" xmlns:xlink="http://www.w3.org/1999/xlink" x="0px" y="0px"
	 viewBox="0 0 481.5 166.1" style="enable-background:new 0 0 481.5 166.1;" xml:space="preserve">
<style type="text/css">
	.st0{clip-path:url(#SVGID_2_);}
	.st1{fill:none;stroke:#AD1E1E;stroke-width:0.9135;stroke-linecap:round;stroke-miterlimit:10;}
</style>
<g>
	<g>
		<g>
			<defs>
				<rect id="SVGID_1_" x="-13.7" width="510" height="166.1"/>
			</defs>
			<clipPath id="SVGID_2_">
				<use xlink:href="#SVGID_1_"  style="overflow:visible;"/>
			</clipPath>
			<g class="st0">
				<g>
					<line class="st1" x1="1736.2" y1="-706.4" x2="852.3" y2="177.5"/>
					<line class="st1" x1="1675.9" y1="-706.4" x2="792.1" y2="177.5"/>
					<line class="st1" x1="1615.7" y1="-706.4" x2="731.8" y2="177.5"/>
					<line class="st1" x1="1555.5" y1="-706.4" x2="671.6" y2="177.5"/>
					<line class="st1" x1="1495.3" y1="-706.4" x2="611.4" y2="177.5"/>
					<line class="st1" x1="1435.1" y1="-706.4" x2="551.2" y2="177.5"/>
					<line class="st1" x1="1374.9" y1="-706.4" x2="491" y2="177.5"/>
					<line class="st1" x1="1314.7" y1="-706.4" x2="430.8" y2="177.5"/>
					<line class="st1" x1="1254.5" y1="-706.4" x2="370.6" y2="177.5"/>
					<line class="st1" x1="1194.3" y1="-706.4" x2="310.4" y2="177.5"/>
					<line class="st1" x1="1134.1" y1="-706.4" x2="250.2" y2="177.5"/>
					<line class="st1" x1="1073.9" y1="-706.4" x2="190" y2="177.5"/>
					<line class="st1" x1="1013.7" y1="-706.4" x2="129.8" y2="177.5"/>
					<line class="st1" x1="953.4" y1="-706.4" x2="69.6" y2="177.5"/>
					<line class="st1" x1="893.2" y1="-706.4" x2="9.3" y2="177.5"/>
					<line class="st1" x1="833" y1="-706.4" x2="-50.9" y2="177.5"/>
					<line class="st1" x1="772.8" y1="-706.4" x2="-111.1" y2="177.5"/>
					<line class="st1" x1="712.6" y1="-706.4" x2="-171.3" y2="177.5"/>
					<line class="st1" x1="652.4" y1="-706.4" x2="-231.5" y2="177.5"/>
					<line class="st1" x1="592.2" y1="-706.4" x2="-291.7" y2="177.5"/>
					<line class="st1" x1="532" y1="-706.4" x2="-351.9" y2="177.5"/>
					<line class="st1" x1="471.8" y1="-706.4" x2="-412.1" y2="177.5"/>
					<line class="st1" x1="411.6" y1="-706.4" x2="-472.3" y2="177.5"/>
					<line class="st1" x1="309.3" y1="-664.3" x2="-532.5" y2="177.5"/>
					<line class="st1" x1="232.3" y1="-647.5" x2="-592.7" y2="177.5"/>
					<line class="st1" x1="188.8" y1="-664.3" x2="-652.9" y2="177.5"/>
					<line class="st1" x1="148.7" y1="-684.4" x2="-713.1" y2="177.5"/>
					<line class="st1" x1="96.8" y1="-692.7" x2="-773.4" y2="177.5"/>
					<line class="st1" x1="50.3" y1="-706.4" x2="-833.6" y2="177.5"/>
					<line class="st1" x1="-9.9" y1="-706.4" x2="-893.8" y2="177.5"/>
					<line class="st1" x1="-70.1" y1="-706.4" x2="-954" y2="177.5"/>
					<line class="st1" x1="-130.3" y1="-706.4" x2="-1014.2" y2="177.5"/>
					<line class="st1" x1="-190.5" y1="-706.4" x2="-1074.4" y2="177.5"/>
					<line class="st1" x1="-250.7" y1="-706.4" x2="-1134.6" y2="177.5"/>
					<line class="st1" x1="-310.9" y1="-706.4" x2="-1194.8" y2="177.5"/>
					<line class="st1" x1="-371.1" y1="-706.4" x2="-1255" y2="177.5"/>
				</g>
				<g>
					<line class="st1" x1="-1255" y1="-706.4" x2="-371.1" y2="177.5"/>
					<line class="st1" x1="-1194.8" y1="-706.4" x2="-310.9" y2="177.5"/>
					<line class="st1" x1="-1134.6" y1="-706.4" x2="-250.7" y2="177.5"/>
					<line class="st1" x1="-1074.4" y1="-706.4" x2="-190.5" y2="177.5"/>
					<line class="st1" x1="-1014.2" y1="-706.4" x2="-130.3" y2="177.5"/>
					<line class="st1" x1="-954" y1="-706.4" x2="-70.1" y2="177.5"/>
					<line class="st1" x1="-893.8" y1="-706.4" x2="-9.9" y2="177.5"/>
					<line class="st1" x1="-833.6" y1="-706.4" x2="50.3" y2="177.5"/>
					<line class="st1" x1="-773.4" y1="-706.4" x2="110.5" y2="177.5"/>
					<line class="st1" x1="-713.1" y1="-706.4" x2="170.7" y2="177.5"/>
					<line class="st1" x1="-652.9" y1="-706.4" x2="230.9" y2="177.5"/>
					<line class="st1" x1="-592.7" y1="-706.4" x2="291.2" y2="177.5"/>
					<line class="st1" x1="-532.5" y1="-706.4" x2="351.4" y2="177.5"/>
					<line class="st1" x1="-472.3" y1="-706.4" x2="411.6" y2="177.5"/>
					<line class="st1" x1="-412.1" y1="-706.4" x2="471.8" y2="177.5"/>
					<line class="st1" x1="-351.9" y1="-706.4" x2="532" y2="177.5"/>
					<line class="st1" x1="-291.7" y1="-706.4" x2="592.2" y2="177.5"/>
					<line class="st1" x1="-231.5" y1="-706.4" x2="652.4" y2="177.5"/>
					<line class="st1" x1="-171.3" y1="-706.4" x2="712.6" y2="177.5"/>
					<line class="st1" x1="-111.1" y1="-706.4" x2="772.8" y2="177.5"/>
					<line class="st1" x1="-50.9" y1="-706.4" x2="833" y2="177.5"/>
					<line class="st1" x1="9.3" y1="-706.4" x2="893.2" y2="177.5"/>
					<line class="st1" x1="69.6" y1="-706.4" x2="953.4" y2="177.5"/>
					<line class="st1" x1="171.9" y1="-664.3" x2="1013.7" y2="177.5"/>
					<line class="st1" x1="248.9" y1="-647.5" x2="1046.7" y2="150.3"/>
					<line class="st1" x1="294" y1="-662.6" x2="1134.1" y2="177.5"/>
					<line class="st1" x1="331.7" y1="-685.1" x2="1194.3" y2="177.5"/>
					<line class="st1" x1="384" y1="-693" x2="1254.5" y2="177.5"/>
					<line class="st1" x1="430.8" y1="-706.4" x2="1314.7" y2="177.5"/>
					<line class="st1" x1="491" y1="-706.4" x2="1374.9" y2="177.5"/>
					<line class="st1" x1="551.2" y1="-706.4" x2="1435.1" y2="177.5"/>
					<line class="st1" x1="611.4" y1="-706.4" x2="1495.3" y2="177.5"/>
					<line class="st1" x1="671.6" y1="-706.4" x2="1555.5" y2="177.5"/>
					<line class="st1" x1="731.8" y1="-706.4" x2="1615.7" y2="177.5"/>
					<line class="st1" x1="792.1" y1="-706.4" x2="1675.9" y2="177.5"/>
					<line class="st1" x1="852.3" y1="-706.4" x2="1736.2" y2="177.5"/>
				</g>
			</g>
		</g>
	</g>
</g>
</svg>
