<?xml version="1.0" encoding="utf-8"?>
<!-- Generator: Adobe Illustrator 19.2.0, SVG Export Plug-In . SVG Version: 6.00 Build 0)  -->
<svg version="1.1" id="Capa_1" xmlns="http://www.w3.org/2000/svg" xmlns:xlink="http://www.w3.org/1999/xlink" x="0px" y="0px"
	 viewBox="0 0 1280 65.2" style="enable-background:new 0 0 1280 65.2;" xml:space="preserve">
<style type="text/css">
	.st0{clip-path:url(#SVGID_2_);}
	.st1{fill:none;stroke:#E83D3C;stroke-linecap:round;stroke-miterlimit:10;}
</style>
<g>
	<defs>
		<rect id="SVGID_1_" width="1280" height="65.2"/>
	</defs>
	<clipPath id="SVGID_2_">
		<use xlink:href="#SVGID_1_"  style="overflow:visible;"/>
	</clipPath>
	<g class="st0">
		<g>
			<line class="st1" x1="-845.8" y1="655.2" x2="63.3" y2="-253.9"/>
			<line class="st1" x1="-783.8" y1="655.2" x2="125.2" y2="-253.9"/>
			<line class="st1" x1="-721.9" y1="655.2" x2="187.2" y2="-253.9"/>
			<line class="st1" x1="-660" y1="655.2" x2="249.1" y2="-253.9"/>
			<line class="st1" x1="-598.1" y1="655.2" x2="311" y2="-253.9"/>
			<line class="st1" x1="-536.1" y1="655.2" x2="372.9" y2="-253.9"/>
			<line class="st1" x1="-474.2" y1="655.2" x2="434.8" y2="-253.9"/>
			<line class="st1" x1="-412.3" y1="655.2" x2="496.8" y2="-253.9"/>
			<line class="st1" x1="-350.4" y1="655.2" x2="558.7" y2="-253.9"/>
			<line class="st1" x1="-288.4" y1="655.2" x2="620.6" y2="-253.9"/>
			<line class="st1" x1="-226.5" y1="655.2" x2="682.5" y2="-253.9"/>
			<line class="st1" x1="-164.6" y1="655.2" x2="744.5" y2="-253.9"/>
			<line class="st1" x1="-102.7" y1="655.2" x2="806.4" y2="-253.9"/>
			<line class="st1" x1="-40.8" y1="655.2" x2="868.3" y2="-253.9"/>
			<line class="st1" x1="21.2" y1="655.2" x2="930.2" y2="-253.9"/>
			<line class="st1" x1="83.1" y1="655.2" x2="992.2" y2="-253.9"/>
			<line class="st1" x1="145" y1="655.2" x2="1054.1" y2="-253.9"/>
			<line class="st1" x1="206.9" y1="655.2" x2="1116" y2="-253.9"/>
			<line class="st1" x1="268.9" y1="655.2" x2="1177.9" y2="-253.9"/>
			<line class="st1" x1="330.8" y1="655.2" x2="1239.9" y2="-253.9"/>
			<line class="st1" x1="392.7" y1="655.2" x2="1301.8" y2="-253.9"/>
			<line class="st1" x1="454.6" y1="655.2" x2="1363.7" y2="-253.9"/>
			<line class="st1" x1="516.6" y1="655.2" x2="1425.6" y2="-253.9"/>
			<line class="st1" x1="621.8" y1="611.9" x2="1487.5" y2="-253.9"/>
			<line class="st1" x1="701" y1="594.6" x2="1549.5" y2="-253.9"/>
			<line class="st1" x1="745.6" y1="611.9" x2="1611.4" y2="-253.9"/>
			<line class="st1" x1="786.9" y1="632.5" x2="1673.3" y2="-253.9"/>
			<line class="st1" x1="840.3" y1="641.1" x2="1735.2" y2="-253.9"/>
			<line class="st1" x1="888.1" y1="655.2" x2="1797.2" y2="-253.9"/>
			<line class="st1" x1="950" y1="655.2" x2="1859.1" y2="-253.9"/>
			<line class="st1" x1="1011.9" y1="655.2" x2="1921" y2="-253.9"/>
			<line class="st1" x1="1073.9" y1="655.2" x2="1982.9" y2="-253.9"/>
			<line class="st1" x1="1135.8" y1="655.2" x2="2044.9" y2="-253.9"/>
			<line class="st1" x1="1197.7" y1="655.2" x2="2106.8" y2="-253.9"/>
			<line class="st1" x1="1259.6" y1="655.2" x2="2168.7" y2="-253.9"/>
			<line class="st1" x1="1321.6" y1="655.2" x2="2230.6" y2="-253.9"/>
		</g>
		<g>
			<line class="st1" x1="2230.6" y1="655.2" x2="1321.6" y2="-253.9"/>
			<line class="st1" x1="2168.7" y1="655.2" x2="1259.6" y2="-253.9"/>
			<line class="st1" x1="2106.8" y1="655.2" x2="1197.7" y2="-253.9"/>
			<line class="st1" x1="2044.9" y1="655.2" x2="1135.8" y2="-253.9"/>
			<line class="st1" x1="1982.9" y1="655.2" x2="1073.9" y2="-253.9"/>
			<line class="st1" x1="1921" y1="655.2" x2="1011.9" y2="-253.9"/>
			<line class="st1" x1="1859.1" y1="655.2" x2="950" y2="-253.9"/>
			<line class="st1" x1="1797.2" y1="655.2" x2="888.1" y2="-253.9"/>
			<line class="st1" x1="1735.2" y1="655.2" x2="826.2" y2="-253.9"/>
			<line class="st1" x1="1673.3" y1="655.2" x2="764.3" y2="-253.9"/>
			<line class="st1" x1="1611.4" y1="655.2" x2="702.3" y2="-253.9"/>
			<line class="st1" x1="1549.5" y1="655.2" x2="640.4" y2="-253.9"/>
			<line class="st1" x1="1487.5" y1="655.2" x2="578.5" y2="-253.9"/>
			<line class="st1" x1="1425.6" y1="655.2" x2="516.6" y2="-253.9"/>
			<line class="st1" x1="1363.7" y1="655.2" x2="454.6" y2="-253.9"/>
			<line class="st1" x1="1301.8" y1="655.2" x2="392.7" y2="-253.9"/>
			<line class="st1" x1="1239.9" y1="655.2" x2="330.8" y2="-253.9"/>
			<line class="st1" x1="1177.9" y1="655.2" x2="268.9" y2="-253.9"/>
			<line class="st1" x1="1116" y1="655.2" x2="206.9" y2="-253.9"/>
			<line class="st1" x1="1054.1" y1="655.2" x2="145" y2="-253.9"/>
			<line class="st1" x1="992.2" y1="655.2" x2="83.1" y2="-253.9"/>
			<line class="st1" x1="930.2" y1="655.2" x2="21.2" y2="-253.9"/>
			<line class="st1" x1="868.3" y1="655.2" x2="-40.8" y2="-253.9"/>
			<line class="st1" x1="763.1" y1="611.9" x2="-102.7" y2="-253.9"/>
			<line class="st1" x1="683.9" y1="594.6" x2="-136.7" y2="-226"/>
			<line class="st1" x1="637.5" y1="610.1" x2="-226.5" y2="-253.9"/>
			<line class="st1" x1="598.7" y1="633.2" x2="-288.4" y2="-253.9"/>
			<line class="st1" x1="544.9" y1="641.4" x2="-350.4" y2="-253.9"/>
			<line class="st1" x1="496.8" y1="655.2" x2="-412.3" y2="-253.9"/>
			<line class="st1" x1="434.8" y1="655.2" x2="-474.2" y2="-253.9"/>
			<line class="st1" x1="372.9" y1="655.2" x2="-536.1" y2="-253.9"/>
			<line class="st1" x1="311" y1="655.2" x2="-598.1" y2="-253.9"/>
			<line class="st1" x1="249.1" y1="655.2" x2="-660" y2="-253.9"/>
			<line class="st1" x1="187.2" y1="655.2" x2="-721.9" y2="-253.9"/>
			<line class="st1" x1="125.2" y1="655.2" x2="-783.8" y2="-253.9"/>
			<line class="st1" x1="63.3" y1="655.2" x2="-845.8" y2="-253.9"/>
		</g>
	</g>
</g>
</svg>
