<?xml version="1.0" encoding="utf-8"?>
<!-- Generator: Adobe Illustrator 19.2.0, SVG Export Plug-In . SVG Version: 6.00 Build 0)  -->
<svg version="1.1" id="Capa_1" xmlns="http://www.w3.org/2000/svg" xmlns:xlink="http://www.w3.org/1999/xlink" x="0px" y="0px"
	 viewBox="0 0 510 166.1" style="enable-background:new 0 0 510 166.1;" xml:space="preserve">
<style type="text/css">
	.st0{clip-path:url(#SVGID_2_);}
	.st1{fill:none;stroke:#E83D3C;stroke-width:0.9135;stroke-linecap:round;stroke-miterlimit:10;}
</style>
<g>
	<defs>
		<rect id="SVGID_1_" width="510" height="166.1"/>
	</defs>
	<clipPath id="SVGID_2_">
		<use xlink:href="#SVGID_1_"  style="overflow:visible;"/>
	</clipPath>
	<g class="st0">
		<g>
			<line class="st1" x1="1749.9" y1="-706.4" x2="866" y2="177.5"/>
			<line class="st1" x1="1689.6" y1="-706.4" x2="805.8" y2="177.5"/>
			<line class="st1" x1="1629.4" y1="-706.4" x2="745.5" y2="177.5"/>
			<line class="st1" x1="1569.2" y1="-706.4" x2="685.3" y2="177.5"/>
			<line class="st1" x1="1509" y1="-706.4" x2="625.1" y2="177.5"/>
			<line class="st1" x1="1448.8" y1="-706.4" x2="564.9" y2="177.5"/>
			<line class="st1" x1="1388.6" y1="-706.4" x2="504.7" y2="177.5"/>
			<line class="st1" x1="1328.4" y1="-706.4" x2="444.5" y2="177.5"/>
			<line class="st1" x1="1268.2" y1="-706.4" x2="384.3" y2="177.5"/>
			<line class="st1" x1="1208" y1="-706.4" x2="324.1" y2="177.5"/>
			<line class="st1" x1="1147.8" y1="-706.4" x2="263.9" y2="177.5"/>
			<line class="st1" x1="1087.6" y1="-706.4" x2="203.7" y2="177.5"/>
			<line class="st1" x1="1027.4" y1="-706.4" x2="143.5" y2="177.5"/>
			<line class="st1" x1="967.1" y1="-706.4" x2="83.3" y2="177.5"/>
			<line class="st1" x1="906.9" y1="-706.4" x2="23" y2="177.5"/>
			<line class="st1" x1="846.7" y1="-706.4" x2="-37.2" y2="177.5"/>
			<line class="st1" x1="786.5" y1="-706.4" x2="-97.4" y2="177.5"/>
			<line class="st1" x1="726.3" y1="-706.4" x2="-157.6" y2="177.5"/>
			<line class="st1" x1="666.1" y1="-706.4" x2="-217.8" y2="177.5"/>
			<line class="st1" x1="605.9" y1="-706.4" x2="-278" y2="177.5"/>
			<line class="st1" x1="545.7" y1="-706.4" x2="-338.2" y2="177.5"/>
			<line class="st1" x1="485.5" y1="-706.4" x2="-398.4" y2="177.5"/>
			<line class="st1" x1="425.3" y1="-706.4" x2="-458.6" y2="177.5"/>
			<line class="st1" x1="323" y1="-664.3" x2="-518.8" y2="177.5"/>
			<line class="st1" x1="246" y1="-647.5" x2="-579" y2="177.5"/>
			<line class="st1" x1="202.5" y1="-664.3" x2="-639.2" y2="177.5"/>
			<line class="st1" x1="162.4" y1="-684.4" x2="-699.4" y2="177.5"/>
			<line class="st1" x1="110.5" y1="-692.7" x2="-759.7" y2="177.5"/>
			<line class="st1" x1="64" y1="-706.4" x2="-819.9" y2="177.5"/>
			<line class="st1" x1="3.8" y1="-706.4" x2="-880.1" y2="177.5"/>
			<line class="st1" x1="-56.4" y1="-706.4" x2="-940.3" y2="177.5"/>
			<line class="st1" x1="-116.6" y1="-706.4" x2="-1000.5" y2="177.5"/>
			<line class="st1" x1="-176.8" y1="-706.4" x2="-1060.7" y2="177.5"/>
			<line class="st1" x1="-237" y1="-706.4" x2="-1120.9" y2="177.5"/>
			<line class="st1" x1="-297.2" y1="-706.4" x2="-1181.1" y2="177.5"/>
			<line class="st1" x1="-357.4" y1="-706.4" x2="-1241.3" y2="177.5"/>
		</g>
		<g>
			<line class="st1" x1="-1241.3" y1="-706.4" x2="-357.4" y2="177.5"/>
			<line class="st1" x1="-1181.1" y1="-706.4" x2="-297.2" y2="177.5"/>
			<line class="st1" x1="-1120.9" y1="-706.4" x2="-237" y2="177.5"/>
			<line class="st1" x1="-1060.7" y1="-706.4" x2="-176.8" y2="177.5"/>
			<line class="st1" x1="-1000.5" y1="-706.4" x2="-116.6" y2="177.5"/>
			<line class="st1" x1="-940.3" y1="-706.4" x2="-56.4" y2="177.5"/>
			<line class="st1" x1="-880.1" y1="-706.4" x2="3.8" y2="177.5"/>
			<line class="st1" x1="-819.9" y1="-706.4" x2="64" y2="177.5"/>
			<line class="st1" x1="-759.7" y1="-706.4" x2="124.2" y2="177.5"/>
			<line class="st1" x1="-699.4" y1="-706.4" x2="184.4" y2="177.5"/>
			<line class="st1" x1="-639.2" y1="-706.4" x2="244.6" y2="177.5"/>
			<line class="st1" x1="-579" y1="-706.4" x2="304.9" y2="177.5"/>
			<line class="st1" x1="-518.8" y1="-706.4" x2="365.1" y2="177.5"/>
			<line class="st1" x1="-458.6" y1="-706.4" x2="425.3" y2="177.5"/>
			<line class="st1" x1="-398.4" y1="-706.4" x2="485.5" y2="177.5"/>
			<line class="st1" x1="-338.2" y1="-706.4" x2="545.7" y2="177.5"/>
			<line class="st1" x1="-278" y1="-706.4" x2="605.9" y2="177.5"/>
			<line class="st1" x1="-217.8" y1="-706.4" x2="666.1" y2="177.5"/>
			<line class="st1" x1="-157.6" y1="-706.4" x2="726.3" y2="177.5"/>
			<line class="st1" x1="-97.4" y1="-706.4" x2="786.5" y2="177.5"/>
			<line class="st1" x1="-37.2" y1="-706.4" x2="846.7" y2="177.5"/>
			<line class="st1" x1="23" y1="-706.4" x2="906.9" y2="177.5"/>
			<line class="st1" x1="83.3" y1="-706.4" x2="967.1" y2="177.5"/>
			<line class="st1" x1="185.6" y1="-664.3" x2="1027.4" y2="177.5"/>
			<line class="st1" x1="262.6" y1="-647.5" x2="1060.4" y2="150.3"/>
			<line class="st1" x1="307.7" y1="-662.6" x2="1147.8" y2="177.5"/>
			<line class="st1" x1="345.4" y1="-685.1" x2="1208" y2="177.5"/>
			<line class="st1" x1="397.7" y1="-693" x2="1268.2" y2="177.5"/>
			<line class="st1" x1="444.5" y1="-706.4" x2="1328.4" y2="177.5"/>
			<line class="st1" x1="504.7" y1="-706.4" x2="1388.6" y2="177.5"/>
			<line class="st1" x1="564.9" y1="-706.4" x2="1448.8" y2="177.5"/>
			<line class="st1" x1="625.1" y1="-706.4" x2="1509" y2="177.5"/>
			<line class="st1" x1="685.3" y1="-706.4" x2="1569.2" y2="177.5"/>
			<line class="st1" x1="745.5" y1="-706.4" x2="1629.4" y2="177.5"/>
			<line class="st1" x1="805.8" y1="-706.4" x2="1689.6" y2="177.5"/>
			<line class="st1" x1="866" y1="-706.4" x2="1749.9" y2="177.5"/>
		</g>
	</g>
</g>
</svg>
